<?xml version="1.0" encoding="UTF-8"?>
<svg xmlns="http://www.w3.org/2000/svg" viewBox="0 0 4512.53 2785.17">
  <g id="br">
    <path d="M4037.76,1855.49c-17.51,34.37-56.5,39.07-63.81,87.25-1.73,11.39,7.38,24.22,1.76,33.35-10.18,16.52-59.94,11.52-67.66,35.28-2.19,6.74-1.35,29.1-5.52,31.73-2.62,1.65-50.71-3.76-61.83-3.33-13.54.51-22.98,1.16-35.74,1.31-11.37.13-30.62,9.84-35.02-4.65-6.87,21.79-28.47,26.13-19.53.02-5.93-1.83-7.15,3.42-10.68,4.69-2.63.94-6.78-1.63-7.03-1.17-1.85,3.42,8.63,11.84-1.7,21.61-4.99,4.72-14.17-1.29-20.4.54-1.32.39-23.25,12.26-24.04,13.39-.73,1.04,14.71,15.59,3.75,23.2-11.74,8.16-13.86-4.23-19.24-6.09-33.82-11.64-27.31-.77-50.98,10.37-22.88,10.77-92.13,46.26-107.38,62.9-3.37,3.68-10.22,30.05-19.5,30.08-1.9,0-10.06-12.36-12.33-10.56-.32.25.02,4.76-2.21,6.77-3.36,3.02-8.14,3.63-8.44,3.99-6.57,7.69,12.36,7.5,10.54,15.79-.68,3.1-11.28,8.34-13.38,15.1-1.65,5.3,2.34,15.2-.98,23.02-3.77,8.87-7.04,14.13-6.13,29.31,1.12,18.76,9.38,35.97,2.82,55.01,1.14,1.3,14.93-9.42,14.05,8.48l-31.53,77.85c-81.93,40.98-87.06,142.32-150.89,204.75-20.11,19.67-57.05,33.76-72.93,58.33-12.56,19.44-11.96,63.63-35.58,78.16-3.22,1.98-8.83-1.46-10.71-.12-4.5,3.2-7.62,25.72-24.58,23.1-4.16-13.2-6.34-31.2.67-43.77,2.49-4.47,7.33-5.07,10.1-8.55,2.37-2.97,1.3-8.82,5.75-11.86,9.61-6.56,20.9,2.36,25.42-.12,8.02-4.4,13.44-41.55-3.02-33.34-13.55,6.76-4.28,28.22-28.21,17.68-1.12-.49-19.95-12.05-20.64-13.05-5.6-8.07-6.57-32.41-23.59-42.03-7.7-4.35-14.84-1.83-18.95-4.13-1.15-.65-10.14-15.76-16.74-20.49-10.47-7.5-22.99-8.73-33.48-16.18-10.32-7.34-21.66-31.04-33.73-30.14-2.37.18-7.35,21.94-20.93,11.12-3.34-2.66-5.33-17.08-11.06-25.23-6.38-9.07-43.28-40.87-52.61-38.48-8.15,2.09-14.35,19.79-30.81,12.07-14.53-6.82,1.51-13.31,6.7-21.98,11.55-19.31,5.07-8.39,19.6-22.64,15.04-14.74,27.73-37.85,41-53.8,17.64-21.2,31.36-37.06,45.96-56.98,18.12-24.73,64.15-45.18,90.16-59.76,7.58-4.25,12.85-13.83,23.85-15.99,2.37-3.29,6.37-54.98,5.94-62.45-.3-5.13-11.52-38.05-14.17-40.86-5.79-6.13-16.84-.68-24.84-1.6-17.49-2-12.21-22.62,4.38-20.55l-10.65-3.52c-1.19-11.83-.56-11.4,10.68-10.65-9.75-10.61,6.56-29.42,5.99-33.69-.51-3.89-7.89-6.61-9.07-11.31-1.7-6.8,5.71-12.71.45-24.96-16.39-38.16-33.32-5.36-59.67-6.23-17.94-.59-26.65-65.51-29.57-82.03-.79-4.46,3.07-9.84,1.66-15.73-.66-2.76-12-19.68-14.4-21.5-5.4-4.11-13.08-.25-20.41-3.83-6.23-3.04-11.55-12.22-15.61-13.03-8.67-1.72-15.48,13.5-27.67,13.85-7.86.23-18.19-5.01-26.69-5.63-13.85-1-44.92,3.29-50.83-9.77l4.53-85.55c-2.21-11.45-22.31-43.96-20.52-53.08,1.19-6.04,16.1-13.97,16.15-18.14.02-1.62-5.42-6.06-6.07-10.82-4.59-33.49,27.31-82.17,24.93-113.4-.5-6.52-10.3-37.21-14.29-41.75-9.89-11.25-29.71-6.37-39.9-24.93-3.09-5.63-9.6-27.12-9.73-33.11-.22-10.18,11.68-21.29,5.41-29.95-7.85-10.84-103.69,6.09-117.26-10.48-9.72-11.86-4.14-29.41-6.84-38.97-2.72-9.65-19.25-22.51-20.05-30.32-1.02-9.94,11.79-12.54,10.93-31.57-.77-17.04-12.44-27.82-13.69-36.34-2.08-14.28,9.98-19.44-10.01-35.99-31.2-25.82-54.82-2.94-83.92-11.87-8.96-2.75-17.17-24.89-20.9-26.95-4.56-2.53-14.79.19-21.64-1.46-19.89-4.78-44.34-28.48-51.1-30.5-4.54-1.36-33.59-7.64-38.27-8.04-13.87-1.21-22.15,5.45-36.57,1.44-20.75-5.78-16.02-15.25-22.75-21.7-8.85-8.47-33.58-13.86-46.72-33.01-18.85-27.48-8.4-36.32-10.4-61.37-.75-9.33-9.37-15.17-9.38-24.78-.01-17.27,21.46-35.41,1.51-55.47-25.24,13.36-57.03,8.49-82.88,19.86-19.78,8.7-55.76,48.78-71.48,56.23-7.39,3.5-17.13,2.28-25.64,6.28-14.9,7-17.23,27.12-40.71,30.52-8.39,1.22-13.24-5.61-20.59-6.31-12.53-1.2-37.68-3.64-49.09-3.36-20.9.5-50.08,22.53-66.05,1.47-13.31-17.54-.51-46.75.22-67.34,2.39-67.36-32.97-1.14-57.5,6.42-9.57,2.95-48.79,6-56.41.75-4.51-3.11-3.77-25.85-17.58-32.06-12.63-5.68-45.5,2.97-51.54-5.23-4.71-8.87,5.38-14.06,5.88-23.21,1.08-19.49-12.93-21.4-21.85-31.89-4.61-5.42-15.27-17.91-19.17-23.28-6.79-9.33-13.56-34.03-16.97-37.99-5.05-5.86-21.43,0-12.76-27.01,1.62-5.05,10.65-4.9,12.13-12.57,1.58-8.18-4.13-13.86-.25-24.94,6.5-18.57,33.95-25.38,36.66-34.65,2.76-9.45-4.32-19.97-2.99-30.85,1.29-10.61,11.43-16.8,13.43-25.88,2.93-13.28-2.1-29.28,5.38-42.53l73.19-52.72c20.42-.79,41.47-5.9,60.28-14.22,8.75-3.87,9.99-13.43,27.21-15.45,27.35-3.22,31.78,27.09,44.12-5.45,4.16-61.28,33.07-142.72,31.46-202.01-.23-8.32-14.43-40.25-19.44-47.98-6.32-9.74-20.21-13.81-25.37-27.86-4.12-11.24-8.28-48.91,2.5-55.83,12.2.91,22.67-9.2,31.86-11.05,7.11-1.43,23.17,5.74,24.98-3.16,5.21-25.71-49.14-7.58-51.58-35.23-1.15-13,2.33-34.55,17.96-37.33l97.44-.09c-.04-7.47-1.92-16.34,5.38-21.26,14.85-1.22,7.1,14.25,24.54,10.58,14.75-3.1,14.51-22.77,39.29-17.79,11.34,2.28,7.97,11.64,12.81,19.33,2.56,4.07,9.42,4.67,10.29,8.1,1.71,6.71-2.08,30.62.15,32.77.7.67,9.36.03,13.68,2.15,17.34,8.54,35.06,37.36,56.74,24.38,8.71-5.21,16.36-19.83,30.01-15.42,9.53,3.08,2.54,30.25,12.84,21,.89-.8.86-8.82,3.34-11.66,15.21-17.44,40.68-33.56,60.69-43.2,5.86-2.82,12.5-1.22,19.58-5.25,14.21-8.09,12.37-27.76,19.43-33.79,6.58-5.62,41.02-11.63,42.45-17.89,3.63-15.92-30.19-11.21-37.15-12.45-17.52-3.12-10.12-19.98-14.15-31.97-2.66-7.91-8.85-15.09-11.72-23.76-2.1-6.33-.03-14.86-2.39-22.44-5.56-17.85-45.48-28.52-32.24-49.57,3.27-5.2,33.2,8.84,42.13,4.18,12.94,27.69,44.27,6.46,60.05,10.63,13.26,3.5,16.76,29.52,32.27,23.93,12.26-4.42-5.79-19.66,13.86-32.32,18.26-11.76,36.74-.1,59.3-8.11,15.67-5.56,25.57-20.2,38.1-25.72,8.46-3.73,21.17-2.95,24.96-5.23,1.24-.74,18.9-19.95,19.51-21.26,3.51-7.59,1.78-23.13,2.63-23.99,1.19-1.19,30.42-4.11,33.45-3.64,27.99,4.36,9.23,42.91,15.77,51.18,3.54,4.48,10.27.4,13.92,2.67,2.66,1.66,14.91,34.52,15.08,40.39.51,17.51-11.13,16.47-13.71,25.35-2.34,8.05.4,17.95-1.46,26.92-4.36,20.95-15.75,19.65-6.16,50.27,8.84,28.2,12.36,35.83,30.84,55.95.79.86-2.51,4.81-1.9,5.61,9.88,13,38.26,14.89,51.39,24.7,14.91-.21,15.74-17.78,29.3-22.41,9.35-3.19,35.19-12.52,42.71-14.15,6.25-1.36,12.38,3.18,17.76.41,8.9-4.57.84-20.05,26.79-19.91,10.58.05,27.73.79,38.26,1.45,14.89.92,29.6,7.49,44.91,5.75,4.47-3.87-23.75-20.77-3.83-37.54,14.66-12.34,28.37-.14,40.39-2.08,10.31-1.66,12.97-13.5,32.44-9.93,16.37,3,46.52,30.93,53.6,31.95,12.53,1.81,29.69-12.96,45.94-14.33,18.68-1.58,22.67,5.02,35.71,6.97,36.95,5.52,38.6-36.12,50.53-59.05,5.68-10.92,39.73-57.63,48.31-65.21,6.68-5.9,13.88-5.76,15.77-7.3.75-.61-3.37-13.78,5.77-17.21,6.73-.07,27.55,37.73,29.21,45.22,2.47,11.17-.32,22.47,1.76,33.71,3.07,16.62,16.49,44.83,22.39,62.75,2.23,6.77.34,15.47,3.35,21.47.58,1.16,17.57,17.27,18.66,17.97,10.77,6.95,32.73-4.36,38.44,20.82,4.45,19.6-8.2,26.51-11.88,41.95-3.64,15.28,11.53,21.06-25.65,18.57-1.62,1.51,6.46,28.44,8.81,31.96,4.89,7.35,7.82-3.83,14.22-5.47,9.93-2.54,30.98-2.49,33.71,10.79l-10.63,8.78c12.23-.98,30.31-6.35,24.87,11.98-.23.78-16.96,9.33-1.81,9.28,1.37,0,6.6-11.53,21.21-10.89,8.1.36,12.81,5.56,18.62,6.6,16.41,2.95,41.74-3.74,34.82,22.11-6.88,25.68-24.5,45.58-30.29,70.89,12.44,2.52,5.13-13.15,12.96-18.01,5.86-3.63,16.44-1.88,19.02-3.3,1.54-.85-5.98-20.03,14.31-29.91,10.53-5.13,48.12-14.06,49.54,1.56,5.27,1.52,2.29-4.25,5.96-7.03,12.54-9.47,10.8,1.77,14.4,3.25,10.36,4.25,23.23,3.41,31.19,7.03,16.23,7.39,12.73,29.27,37.05,7.43,4.64,5.18-.73,17.24.02,17.71,1.67,1.04,36.09,4.86,38.65,7.65,1.55,1.68.09,7.25.43,10.13,3.26-8.66,27.51-1.51,28.26,1.96,1.22,5.62-5.42,15.74-3.42,22.84,6.84-.63,4.66-12.54,10.53-16.15,7.49-4.6,12.47,1.63,16.32,1.66,2.54.02.92-6.22,1.52-6.72,8.44-6.94,6.41,9.05,8.92,13.98,3.95,7.75,19.04,14.87,21.54,24.84,1.38,5.51-2.36,9.76-2.08,12.14.17,1.49,17.41,9.03,10.63,23.49,19.23-3.45,22.97-4.66,21.31,17.71,6.94-3.28,12.22-8.01,19.86-10.31,9.84-2.97,22.04.66,22.65-.3.75-1.18-1.21-6.98.69-9.73,11.23-16.23,74.18,36.04,97.08,34.23,5.39-.43,9.04-6.83,13.39-6.28,5.6.71,17.33,15.52,29.26,17.14,22.47,3.06,49.88-5.95,71.06-6.65,27.88-.93,69.67,27.39,94.78,42.84,20.42,12.57,14.38,18.03,39.49,20.8,15.24,1.69,10.21,16.8,15.93,26.66,11.34,19.52,48.62,44.82,65.82,58.33,18.17,14.29,25.52,25.93,53.43,31.72,21.06,4.37,67.41-4.77,82.11,15.44,4.39,6.04,4.69,22.39,8.04,28.55,2.44,4.49,11.96-1.38,13.69,12.1,1.36,10.58-4.87,12.9-4.83,18.9.02,3.52,9.87,54.8,11.32,59.48,4.3,13.92,18.12,15.53,11.86,32.48M4380.21,1128.06c-13.71,4.05-77.45,63.95-81.92,70.92-2.23,3.47-7.95,4.53-10.17,7.57-4.25,5.82-7.8,19.11-14.94,20.19-2.97.45-7.46-3.76-8.35-2.7-1.12,1.35,3.44,9,2.07,14.29-2.02,7.76-29.1,54.23-35.32,62.47-8.66,11.45-34.41,40.83-49.42,36.18-12.88-3.99-3.79-21.69-20.23-17.13,10.25,7.43,2.53,23.63-3.41,32.9-2.69,4.2-13.75,6.82-13.06,14.92.26,3.07,6.65,6.89,6.03,14-.44,5.03-9.72,12.53-7.25,16.1.5.72,9.58,1.56,10.59,5.46,1.9,7.34-9.25,7.51-10.28,9.19-.4.66,3.79,9.16,3.08,15.08-1.28,10.74-7.05,20.67-7.26,32.49-.41,23.09,10.23,59.51,7.2,81.31-4.61,33.15-27.22,71.8-31.05,110.2-.58,5.77,4.61,12.05,2.3,20.5-2.48,9.06-32.03,26.1-34.32,31.68-1.27,3.1,2.73,7.58,1.83,11-7.61,29.25-5.94,18.38-7.8,47.25M4459.94,1053.76,4447.52,1053.76,3328.23,2536.64c-7.84-1.31-11.17,7.52-17.56,9.15-6.11,1.56-13.19-3.94-18.03-.63-3.65,2.49-15.55,40.79-19.64,47.97-6.26,11-20.78,15.95-26.47,23.19-4.88,6.2-15.19,28.5-17.6,37.35,11.8,3.16,5.3-9.08,7.09-10.64,1.35-1.18,8.09,4.14,14.01,1.87,7.32-2.82,16.07-15.84,21.83-20.97,3.45-3.07,10.93-3.11,14.18-7.11,3.74-4.61,13.15-30.17,22.41-41.51,3.27-4.01,11.28-6.03,12.09-7.38,3.52-5.89-4.69-19.04-2.95-20.64,2.51-2.32,14.59,5.92,10.64-10.64Z" fill="#ececec"/>
  </g>
  <g id="LINHAS">
    <g id="CENTRO_OESTE" data-name="CENTRO OESTE">
      <g id="Layer_3" data-name="Layer 3">
        <path d="M2966.26,1495.25c-59.23,209.83-38.34,534.76,221.62,592.81" fill="none" stroke="#898989" stroke-miterlimit="10"/>
        <path d="M3291.36,1910.53c-45.43-214.53-47.89-302.47-325.11-421.66" fill="none" stroke="#898989" stroke-miterlimit="10"/>
      </g>
      <g id="Layer_4" data-name="Layer 4">
        <path d="M3431.96,1575.37c-465.7,114.15-84.56,729.24,42.27,774.67" fill="none" stroke="#898989" stroke-miterlimit="10" stroke-width="3"/>
        <path d="M3826.17,2070.69c-32.18-302.87-109.28-435.06-394.21-504.51" fill="none" stroke="#898989" stroke-miterlimit="10" stroke-width="5"/>
        <path d="M3315.72,1910.53c67.6-50.96,138.12-299.81,121.35-331.07" fill="none" stroke="#898989" stroke-miterlimit="10"/>
        <path d="M3452.96,2249.9c71.93-229.04,88.53-627.84-21-683.71" fill="none" stroke="#898989" stroke-miterlimit="10"/>
        <path d="M4204.66,684.36c121.36,460.24-304,1133.2-766.52,880.06" fill="none" stroke="#898989" stroke-miterlimit="10"/>
        <path d="M3624.58,1860.59c39.21-103.42,6.77-291.59-192.62-294.4" fill="none" stroke="#898989" stroke-miterlimit="10"/>
        <path d="M3182.62,2077.98c-155.09-711.96,842.97-1279.83,1240.49-1260.9" fill="none" stroke="#898989" stroke-miterlimit="10"/>
        <path d="M3243.47,1987.41c93.38-456.83,563.67-1321.98,961.18-1303.05" fill="none" stroke="#898989" stroke-miterlimit="10"/>
      </g>
    </g>
    <g id="NORDESTE">
      <path d="M3204.35,2102.25c-10.1-496.58,705.14-1222.71,1218.76-1285.17" fill="none" stroke="#898989" stroke-miterlimit="10"/>
      <path d="M3465.75,2314.13c-192.13-615.2,514.93-1397.99,954.08-1497.05" fill="none" stroke="#898989" stroke-miterlimit="10"/>
      <path d="M3396.17,1994.35c115.47-484.59,630.68-926.65,1037.66-1009.94" fill="none" stroke="#898989" stroke-miterlimit="10"/>
      <path d="M3624.58,1860.59c-35.33-409.18,510.17-828.27,809.25-883.17" fill="none" stroke="#898989" stroke-miterlimit="10"/>
      <path d="M3698.51,1991.03c115.17-188.73,364.44-847.42,691.91-896.64" fill="none" stroke="#898989" stroke-miterlimit="10"/>
      <path d="M3386.7,1985.52c128.72-341.04,672.07-877.95,991.98-900.66" fill="none" stroke="#898989" stroke-miterlimit="10"/>
      <path d="M4219.85,669.45c70.04,494.05-353.85,1098.95-492.42,1229.22" fill="none" stroke="#898989" stroke-miterlimit="10"/>
      <path d="M4423.11,829.84c18.93,531.91-505.73,1080.69-727.95,1153.14" fill="none" stroke="#898989" stroke-miterlimit="10"/>
      <path d="M4433.83,977.42c90.89-196.6-195.49-298.21-213.98-298.21" fill="none" stroke="#898989" stroke-miterlimit="10"/>
      <path d="M4167.22,1092.06c0-9.07,183.25-20.57,216.06-10.47" fill="none" stroke="#898989" stroke-miterlimit="10"/>
      <path d="M4437.61,958.77c124.6-32.01,67.71,87.59,9.6,42.7" fill="none" stroke="#898989" stroke-miterlimit="10"/>
      <path d="M4451.6,982.46c78.03,596.06-586.39,1272.52-966.65,1360.09" fill="none" stroke="#898989" stroke-miterlimit="10"/>
      <path d="M4217.92,684.05c317.49,277.04-30.21,1186.45-427.49,1388.68" fill="none" stroke="#898989" stroke-miterlimit="10" stroke-width="3"/>
      <path d="M4167.22,1092.06c82.66,381.74-229.67,893.46-447.36,983.69" fill="none" stroke="#898989" stroke-miterlimit="10"/>
      <path d="M4167.22,1092.06c116.73,497.21-147.64,901.43-364.38,969.58" fill="none" stroke="#898989" stroke-miterlimit="10"/>
      <path d="M4164.69,1100.89c77.61,455.56-145.77,866.11-355.88,962.65" fill="none" stroke="#898989" stroke-miterlimit="10"/>
      <path d="M4164.69,1100.89c147.65,416.44-130.61,959.26-338.83,1067.16" fill="none" stroke="#898989" stroke-miterlimit="10"/>
    </g>
    <g id="SUL">
      <path d="M3179.05,2090.68c-33.65,171.62,171.3,229.92,290.76,259.36" fill="none" stroke="#898989" stroke-miterlimit="10"/>
      <path d="M3291.36,1910.53c-138.18,130.61,103.57,397.45,182.86,439.51" fill="none" stroke="#898989" stroke-miterlimit="10"/>
      <path d="M3474.23,2345.84c-18.54,0-348.09,66.39-347.25,62.19" fill="none" stroke="#898989" stroke-miterlimit="10"/>
      <path d="M3469.81,2355.93c0-249.25-60.6-202.15,84.95-256" fill="none" stroke="#898989" stroke-miterlimit="10"/>
      <path d="M3469.81,2342.55c0-162.22-100.14-71.83-9.28-92.66" fill="none" stroke="#898989" stroke-miterlimit="10" stroke-width="2"/>
      <path d="M3474.23,2345.84c136.08-540.14,450.5-299.14,315.86-282.15" fill="none" stroke="#898989" stroke-miterlimit="10" stroke-width="3"/>
      <path d="M3444.54,2242.12c-25.24,125.35,92.57,44.83,30.54,100.44" fill="none" stroke="#898989" stroke-miterlimit="10"/>
      <path d="M3126.98,2404.4c150.8-86.86,217.83-109.68,358.85-67.4" fill="none" stroke="#898989" stroke-miterlimit="10"/>
      <path d="M3465.75,2333.71c-14.28-300.42-121.32-289.3-72.53-348.19" fill="none" stroke="#898989" stroke-miterlimit="10"/>
      <path d="M3224.54,2247.37c7.33,53,174.16,114.62,233.12,102.67" fill="none" stroke="#898989" stroke-miterlimit="10"/>
    </g>
    <g id="SUDESTE">
      <path d="M3234.1,2204.9c-18.3-32.18-7.94-109.38-57.16-120.11" fill="none" stroke="#898989" stroke-miterlimit="10"/>
      <path d="M3449.17,2237.28c0-37.67-138.46-217.48-272.23-155.64" fill="none" stroke="#898989" stroke-miterlimit="10"/>
      <path d="M3243.47,1987.41c1.34,134.86,176.04,355.9,212.01,368.52" fill="none" stroke="#898989" stroke-miterlimit="10"/>
      <path d="M3289.73,1910.53c-44.32,196.05,49.47,402.99,195.23,441.48" fill="none" stroke="#898989" stroke-miterlimit="10" stroke-width="2"/>
      <path d="M3297.83,1912.4c-52.77,157.28,313.44,150.5,499.33,150.5" fill="none" stroke="#898989" stroke-miterlimit="10" stroke-width="4"/>
      <path d="M3299.28,1904.66c41.02,80.61,253.95,295.99,483.74,174.21" fill="none" stroke="#898989" stroke-miterlimit="10"/>
      <path d="M3297.83,1912.4c55.53-54.89,192.35-64.43,324.23-66.95" fill="none" stroke="#898989" stroke-miterlimit="10"/>
      <path d="M3322.39,1795.19c-3.46,82.66-1.42,54.74-27.29,117.21" fill="none" stroke="#898989" stroke-miterlimit="10" stroke-width="2"/>
      <path d="M3182.62,2074.7c56.16-84.55,34.56-150.94,112.49-162.3" fill="none" stroke="#898989" stroke-miterlimit="10"/>
      <path d="M3423.3,1827.78c-39.12,117.82-214.45,174.9-233.38,260.28" fill="none" stroke="#898989" stroke-miterlimit="10"/>
      <path d="M3191.7,2084.79c0-65.67,76.29-187.72,99.66-187.72" fill="none" stroke="#898989" stroke-miterlimit="10" stroke-width="3"/>
      <path d="M3312.7,1788.87c-26.02,193.48,255.49,473.2,554.58,397.82" fill="none" stroke="#898989" stroke-miterlimit="10"/>
      <path d="M3322.39,1795.19c11.77,9.24,29.61,59.09,95.23,38.9" fill="none" stroke="#898989" stroke-miterlimit="10"/>
      <path d="M3312.7,1788.87c38.69-43.54,38.03,108.69-6.77,96.14" fill="none" stroke="#898989" stroke-miterlimit="10"/>
      <path d="M3422.09,2054.87c-21.87-69.21-34.09-125.78-119.5-146.9" fill="none" stroke="#898989" stroke-miterlimit="10"/>
      <path d="M3382.92,1990.57s-.5-56.26-76.92-85.66" fill="none" stroke="#898989" stroke-miterlimit="10"/>
      <path d="M3396.17,1994.35c-23.98,176.04-47.32,177.28-166.89,222.71" fill="none" stroke="#898989" stroke-miterlimit="10"/>
      <path d="M3223.77,2207.68c0-70.56,87.53-152.81,198.32-152.81" fill="none" stroke="#898989" stroke-miterlimit="10" stroke-width="2"/>
      <path d="M3436.3,2195.63c31.98-44.27,53.25-198.53-3.53-365.33" fill="none" stroke="#898989" stroke-miterlimit="10"/>
      <path d="M3213.19,2242.12c97.8-170.78,276.16-102.59,406.35-377.11" fill="none" stroke="#898989" stroke-miterlimit="10"/>
      <path d="M3622.06,1868.79c-19.56,123.67-208.27,184.1-297.08,215.44" fill="none" stroke="#898989" stroke-miterlimit="10" stroke-width="2"/>
      <path d="M3457.66,2237.17c0-55.8-123.91-165.56-135.07-165.56" fill="none" stroke="#898989" stroke-miterlimit="10" stroke-width="2"/>
      <path d="M3482,2338.52c-36.6-108.53,14.13-253.66-50.86-283.65" fill="none" stroke="#898989" stroke-miterlimit="10"/>
      <path d="M3431.14,2058.85c87.71,22.14,283.36,14.14,366.02-8.14" fill="none" stroke="#898989" stroke-miterlimit="10"/>
      <path d="M3453.92,2198.61c0,49.87-10.48,145.2,29.46,145.2" fill="none" stroke="#898989" stroke-miterlimit="10"/>
      <path d="M3810.18,2071.61c-26.5,55.92-274.32,257.63-319.75,282.23" fill="none" stroke="#898989" stroke-miterlimit="10"/>
      <path d="M3804.47,2083.25c17.04,13.88-295.21,163.61-361.58,112.09" fill="none" stroke="#898989" stroke-miterlimit="10"/>
      <path d="M3801.95,2062.22c-1.26,21.03-265.9,128.08-365.65,128.08" fill="none" stroke="#898989" stroke-miterlimit="10"/>
      <path d="M3836.59,2179.76c-31.55,86.81-237.43,162.08-366.78,170.28" fill="none" stroke="#898989" stroke-miterlimit="10"/>
      <path d="M3465.92,2336.99c-21.36-73.65,27.42-166.6,93.67-242.31" fill="none" stroke="#898989" stroke-miterlimit="10"/>
      <path d="M3567.16,2114.43c-19.56,59.75-63.57,99.18-97.57,127.68" fill="none" stroke="#898989" stroke-miterlimit="10"/>
      <path d="M3719.86,2088.68c-29.66,79.75-150.27,118.11-264.38,152.75" fill="none" stroke="#898989" stroke-miterlimit="10"/>
      <path d="M3553.28,2116.76c16.3,38.49,194.79-21.78,251.6-21.78" fill="none" stroke="#898989" stroke-miterlimit="10"/>
      <path d="M3574.1,2136.22c12.01,23.39,202.24-103.19,228.74-82.66" fill="none" stroke="#898989" stroke-miterlimit="10"/>
      <path d="M3417.62,2056.86c0-13.6,66.62,43.08,137.13,43.08" fill="none" stroke="#898989" stroke-miterlimit="10" stroke-width="3"/>
      <path d="M3579.81,2076.48c8.83-15.77,61.46,18.2,144.47,18.2" fill="none" stroke="#898989" stroke-miterlimit="10"/>
      <path d="M3631.52,1860.59c10.82,123.83-2.52,185.91-47.39,215.55" fill="none" stroke="#898989" stroke-miterlimit="10"/>
      <path d="M3831.54,2170.39c-24.61-97.8-52.06-166.76-104.11-224.8" fill="none" stroke="#898989" stroke-miterlimit="10"/>
      <path d="M3836.59,2179.76c6.94-106.63-129.35-323.59-198.76-315.39" fill="none" stroke="#898989" stroke-miterlimit="10" stroke-width="2"/>
      <path d="M3848.94,2030.84c55.07-173.13-14.19-214.75-46.83-228.54" fill="none" stroke="#898989" stroke-miterlimit="10" stroke-width="7"/>
      <path d="M3803.51,2100.63c-10.1,176.04,239.77,47.32,34.07-29.02" fill="none" stroke="#898989" stroke-miterlimit="10" stroke-width="14"/>
      <path d="M3569.59,2107.3c0,40.05,114.62,72.46,256.28,72.46" fill="none" stroke="#898989" stroke-miterlimit="10" stroke-width="5"/>
      <path d="M3823.52,2009.64c0-16.9,60.39-30.58,135.03-30.58" fill="none" stroke="#898989" stroke-miterlimit="10" stroke-width="5"/>
      <path d="M3932.54,2055.51c76.98-40.38,80.76,92.75,0,39.75" fill="none" stroke="#898989" stroke-miterlimit="10" stroke-width="4"/>
    </g>
  </g>
  <g id="SUL-2" data-name="SUL">
    <g id="florianopolis">
      <rect x="3398.7" y="2365.41" width="205.58" height="42.61" fill="#c4cedb"/>
      <g>
        <path d="M3411.94,2383.01v2.61h5.27v3.96h-5.27v5.75h-4.56v-16.41h10.44v4.09h-5.88Z"/>
        <path d="M3430.64,2391.19v4.14h-10.42v-16.41h4.58v12.27h5.84Z"/>
        <path d="M3431.35,2387.13c0-5.01,3.76-8.62,9.04-8.62s9.01,3.59,9.01,8.62-3.75,8.62-9.01,8.62-9.04-3.6-9.04-8.62ZM3444.69,2387.13c0-2.57-1.81-4.41-4.3-4.41s-4.33,1.86-4.33,4.41,1.83,4.41,4.33,4.41,4.3-1.84,4.3-4.41Z"/>
        <path d="M3457.87,2390.31h-1.64v5.02h-4.52v-16.41h7.11c3.54,0,6.1,2.38,6.1,5.81,0,2.01-.98,3.66-2.6,4.63l3.26,5.97h-5.04l-2.66-5.02ZM3456.23,2386.5h2.06c1.26,0,1.99-.76,1.99-1.79s-.73-1.78-1.99-1.78h-2.06v3.56Z"/>
        <path d="M3467.56,2378.92h4.58v16.41h-4.58v-16.41Z"/>
        <path d="M3485.29,2392.67h-5.82l-.91,2.67h-4.84l6.44-16.41h4.42l6.59,16.41h-4.98l-.9-2.67ZM3482.38,2384.04l-1.8,5.08h3.61l-1.81-5.08Z"/>
        <path d="M3507.39,2378.92v16.41h-3.74l-6.52-8.9v8.9h-4.38v-16.41h3.96l6.3,8.61v-8.61h4.38Z"/>
        <path d="M3509.72,2387.13c0-5.01,3.76-8.62,9.04-8.62s9.01,3.59,9.01,8.62-3.75,8.62-9.01,8.62-9.04-3.6-9.04-8.62ZM3523.06,2387.13c0-2.57-1.81-4.41-4.3-4.41s-4.33,1.86-4.33,4.41,1.83,4.41,4.33,4.41,4.3-1.84,4.3-4.41ZM3518.66,2373.84h4.55l-3.01,3.64h-3.2l1.66-3.64Z"/>
        <path d="M3543.14,2384.85c0,3.44-2.59,5.95-6.08,5.95h-2.46v4.53h-4.53v-16.41h6.99c3.49,0,6.08,2.49,6.08,5.93ZM3538.5,2384.86c0-1.17-.78-1.99-1.97-1.99h-1.91v3.98h1.91c1.19,0,1.97-.83,1.97-1.99Z"/>
        <path d="M3544.34,2387.13c0-5.01,3.76-8.62,9.04-8.62s9.01,3.59,9.01,8.62-3.75,8.62-9.01,8.62-9.04-3.6-9.04-8.62ZM3557.68,2387.13c0-2.57-1.81-4.41-4.3-4.41s-4.33,1.86-4.33,4.41,1.83,4.41,4.33,4.41,4.3-1.84,4.3-4.41Z"/>
        <path d="M3575.12,2391.19v4.14h-10.42v-16.41h4.58v12.27h5.84Z"/>
        <path d="M3577.15,2378.92h4.58v16.41h-4.58v-16.41Z"/>
        <path d="M3584.12,2390.03h4.66c0,1.17.9,1.74,1.93,1.74.95,0,1.85-.5,1.85-1.4,0-1.03-1.28-1.33-2.84-1.71-2.37-.59-5.4-1.32-5.4-5.05,0-3.23,2.37-5.08,6.24-5.08s6.19,2.02,6.19,5.36h-4.53c0-1.04-.77-1.52-1.71-1.52-.81,0-1.58.35-1.58,1.11,0,.93,1.24,1.24,2.78,1.63,2.42.62,5.57,1.43,5.57,5.18s-2.75,5.44-6.56,5.44c-4.02,0-6.61-2.12-6.61-5.7Z"/>
      </g>
      <circle id="florianopolis-2" data-name="florianopolis" cx="3476.57" cy="2344.98" r="32.69" fill="#2cb86a"/>
    </g>
    <g id="santamaria">
      <rect x="3012.05" y="2349.29" width="194.54" height="42.61" fill="#c4cedb"/>
      <g>
        <path d="M3028.4,2373.5h4.66c0,1.17.9,1.74,1.93,1.74.95,0,1.85-.5,1.85-1.4,0-1.03-1.28-1.33-2.84-1.71-2.37-.59-5.4-1.32-5.4-5.05,0-3.23,2.37-5.08,6.24-5.08s6.19,2.02,6.19,5.36h-4.53c0-1.04-.77-1.52-1.71-1.52-.81,0-1.58.35-1.58,1.11,0,.93,1.24,1.24,2.78,1.63,2.42.62,5.57,1.43,5.57,5.18s-2.75,5.44-6.56,5.44c-4.02,0-6.61-2.12-6.61-5.7Z"/>
        <path d="M3053.31,2376.13h-5.82l-.91,2.67h-4.84l6.44-16.41h4.42l6.59,16.41h-4.98l-.9-2.67ZM3050.39,2367.51l-1.8,5.08h3.61l-1.81-5.08Z"/>
        <path d="M3075.41,2362.39v16.41h-3.74l-6.52-8.9v8.9h-4.38v-16.41h3.96l6.3,8.61v-8.61h4.38Z"/>
        <path d="M3090.89,2366.46h-4.46v12.34h-4.54v-12.34h-4.46v-4.07h13.45v4.07Z"/>
        <path d="M3101.23,2376.13h-5.82l-.91,2.67h-4.84l6.44-16.41h4.42l6.59,16.41h-4.98l-.9-2.67ZM3098.31,2367.51l-1.8,5.08h3.61l-1.81-5.08Z"/>
        <path d="M3129.42,2378.79l-1.28-9.45-4.35,9.48h-1.33l-4.35-9.47-1.26,9.44h-4.58l2.48-16.41h4.51l3.86,8.93,3.89-8.93h4.51l2.46,16.41h-4.56Z"/>
        <path d="M3146.19,2376.13h-5.82l-.91,2.67h-4.84l6.44-16.41h4.42l6.59,16.41h-4.98l-.9-2.67ZM3143.27,2367.51l-1.8,5.08h3.61l-1.81-5.08Z"/>
        <path d="M3159.81,2373.78h-1.64v5.02h-4.52v-16.41h7.11c3.54,0,6.1,2.38,6.1,5.81,0,2.01-.98,3.66-2.6,4.63l3.26,5.97h-5.04l-2.66-5.02ZM3158.18,2369.97h2.06c1.26,0,1.99-.76,1.99-1.79s-.73-1.78-1.99-1.78h-2.06v3.56Z"/>
        <path d="M3169.5,2362.39h4.58v16.41h-4.58v-16.41Z"/>
        <path d="M3187.24,2376.13h-5.82l-.91,2.67h-4.84l6.44-16.41h4.42l6.59,16.41h-4.98l-.9-2.67ZM3184.32,2367.51l-1.8,5.08h3.61l-1.81-5.08Z"/>
      </g>
      <circle id="santamaria-2" data-name="santamaria" cx="3122.8" cy="2413.59" r="28.6" fill="#2cb86a"/>
    </g>
    <g id="curitiba">
      <rect x="3367.41" y="2207.68" width="128.02" height="42.61" fill="#c4cedb"/>
      <g>
        <path d="M3375.83,2229.83c0-4.93,3.73-8.63,8.72-8.63,4.3,0,7.63,2.84,8.3,7h-4.58c-.56-1.68-1.98-2.77-3.71-2.77-2.32,0-4.03,1.87-4.03,4.41s1.7,4.37,4.03,4.37c1.82,0,3.25-1.19,3.71-3.01h4.62c-.62,4.31-3.97,7.24-8.34,7.24-4.99,0-8.72-3.7-8.72-8.6Z"/>
        <path d="M3394.89,2231.67v-10.06h4.62v9.98c0,1.6,1.03,2.64,2.54,2.64s2.54-1.04,2.54-2.64v-9.98h4.62v10.06c0,4.04-2.98,6.76-7.16,6.76s-7.16-2.73-7.16-6.76Z"/>
        <path d="M3418.38,2233h-1.64v5.02h-4.52v-16.41h7.11c3.54,0,6.1,2.38,6.1,5.81,0,2.01-.98,3.66-2.6,4.63l3.26,5.97h-5.04l-2.66-5.02ZM3416.74,2229.19h2.06c1.26,0,1.99-.76,1.99-1.79s-.73-1.78-1.99-1.78h-2.06v3.56Z"/>
        <path d="M3428.07,2221.61h4.58v16.41h-4.58v-16.41Z"/>
        <path d="M3448.13,2225.68h-4.46v12.34h-4.54v-12.34h-4.46v-4.07h13.45v4.07Z"/>
        <path d="M3450.15,2221.61h4.58v16.41h-4.58v-16.41Z"/>
        <path d="M3470.8,2233.34c0,2.66-2.29,4.67-5.32,4.67h-7.56v-16.41h7.41c2.91,0,5.03,1.78,5.03,4.2,0,1.47-.82,2.79-2.07,3.54,1.55.73,2.52,2.2,2.52,3.99ZM3466.33,2232.81c0-.87-.64-1.49-1.62-1.49h-2.46v2.98h2.46c.98,0,1.62-.61,1.62-1.5ZM3466.07,2226.56c0-.85-.58-1.43-1.53-1.43h-2.28v2.86h2.28c.95,0,1.53-.58,1.53-1.43h0Z"/>
        <path d="M3482.68,2235.35h-5.82l-.91,2.67h-4.84l6.44-16.41h4.42l6.59,16.41h-4.98l-.9-2.67ZM3479.77,2226.73l-1.8,5.08h3.61l-1.81-5.08Z"/>
      </g>
      <circle id="curitiba-2" data-name="curitiba" cx="3431.42" cy="2185.63" r="28.6" fill="#2cb86a"/>
    </g>
    <g id="pontagrossa">
      <rect x="3053.81" y="2214.36" width="201.99" height="42.61" fill="#c4cedb"/>
      <g>
        <path d="M3075.19,2233.17c0,3.44-2.59,5.95-6.08,5.95h-2.46v4.53h-4.53v-16.41h6.99c3.49,0,6.08,2.49,6.08,5.93ZM3070.54,2233.18c0-1.17-.78-1.99-1.97-1.99h-1.91v3.98h1.91c1.19,0,1.97-.83,1.97-1.99Z"/>
        <path d="M3076.39,2235.45c0-5.01,3.76-8.62,9.04-8.62s9.01,3.59,9.01,8.62-3.75,8.62-9.01,8.62-9.04-3.6-9.04-8.62ZM3089.73,2235.45c0-2.57-1.81-4.41-4.3-4.41s-4.33,1.86-4.33,4.41,1.83,4.41,4.33,4.41,4.3-1.84,4.3-4.41Z"/>
        <path d="M3111.39,2227.25v16.41h-3.74l-6.52-8.9v8.9h-4.38v-16.41h3.96l6.3,8.61v-8.61h4.38Z"/>
        <path d="M3126.87,2231.32h-4.46v12.34h-4.54v-12.34h-4.46v-4.07h13.45v4.07Z"/>
        <path d="M3137.21,2240.99h-5.82l-.91,2.67h-4.84l6.44-16.41h4.42l6.59,16.41h-4.98l-.9-2.67ZM3134.29,2232.37l-1.8,5.08h3.61l-1.81-5.08Z"/>
        <path d="M3165.71,2234.88c0,5.37-3.5,9.18-8.64,9.18s-8.74-3.61-8.74-8.6,3.65-8.63,8.7-8.63c4.3,0,7.82,2.69,8.51,6.5h-4.74c-.59-1.38-2.06-2.27-3.74-2.27-2.46,0-4.11,1.78-4.11,4.4s1.63,4.37,4.11,4.37c1.73,0,3.2-.83,3.72-2.1h-4.07v-2.85h9Z"/>
        <path d="M3174.16,2238.63h-1.64v5.02h-4.52v-16.41h7.11c3.54,0,6.1,2.38,6.1,5.81,0,2.01-.98,3.66-2.6,4.63l3.26,5.97h-5.04l-2.66-5.02ZM3172.52,2234.83h2.06c1.26,0,1.99-.76,1.99-1.79s-.73-1.78-1.99-1.78h-2.06v3.56Z"/>
        <path d="M3182.85,2235.45c0-5.01,3.76-8.62,9.04-8.62s9.01,3.59,9.01,8.62-3.75,8.62-9.01,8.62-9.04-3.6-9.04-8.62ZM3196.19,2235.45c0-2.57-1.81-4.41-4.3-4.41s-4.33,1.86-4.33,4.41,1.83,4.41,4.33,4.41,4.3-1.84,4.3-4.41Z"/>
        <path d="M3202.41,2238.35h4.66c0,1.17.9,1.74,1.93,1.74.95,0,1.85-.5,1.85-1.4,0-1.03-1.28-1.33-2.84-1.71-2.37-.59-5.4-1.32-5.4-5.05,0-3.23,2.37-5.08,6.24-5.08s6.19,2.02,6.19,5.36h-4.53c0-1.04-.77-1.52-1.71-1.52-.81,0-1.58.35-1.58,1.11,0,.93,1.24,1.24,2.78,1.63,2.42.62,5.57,1.43,5.57,5.18s-2.75,5.44-6.56,5.44c-4.02,0-6.61-2.12-6.61-5.7Z"/>
        <path d="M3217.16,2238.35h4.66c0,1.17.9,1.74,1.93,1.74.95,0,1.85-.5,1.85-1.4,0-1.03-1.28-1.33-2.84-1.71-2.37-.59-5.4-1.32-5.4-5.05,0-3.23,2.37-5.08,6.24-5.08s6.19,2.02,6.19,5.36h-4.53c0-1.04-.77-1.52-1.71-1.52-.81,0-1.58.35-1.58,1.11,0,.93,1.24,1.24,2.78,1.63,2.42.62,5.57,1.43,5.57,5.18s-2.75,5.44-6.56,5.44c-4.02,0-6.61-2.12-6.61-5.7Z"/>
        <path d="M3242.07,2240.99h-5.82l-.91,2.67h-4.84l6.44-16.41h4.42l6.59,16.41h-4.98l-.9-2.67ZM3239.15,2232.37l-1.8,5.08h3.61l-1.81-5.08Z"/>
      </g>
      <circle id="pontagrossa-2" data-name="pontagrossa" cx="3234.1" cy="2196.76" r="28.6" fill="#2cb86a"/>
    </g>
    <g id="cornelioprocopio">
      <rect x="2934.69" y="2100.09" width="271.9" height="42.61" fill="#c4cedb"/>
      <g>
        <path d="M2942.15,2121.19c0-4.93,3.73-8.63,8.72-8.63,4.3,0,7.63,2.84,8.3,7h-4.58c-.56-1.68-1.98-2.77-3.71-2.77-2.32,0-4.03,1.87-4.03,4.41s1.7,4.37,4.03,4.37c1.82,0,3.25-1.19,3.71-3.01h4.62c-.62,4.31-3.97,7.24-8.34,7.24-4.99,0-8.72-3.7-8.72-8.6Z"/>
        <path d="M2960.53,2121.17c0-5.01,3.76-8.62,9.04-8.62s9.01,3.59,9.01,8.62-3.75,8.62-9.01,8.62-9.04-3.6-9.04-8.62ZM2973.87,2121.17c0-2.57-1.81-4.41-4.3-4.41s-4.33,1.86-4.33,4.41,1.83,4.41,4.33,4.41,4.3-1.84,4.3-4.41Z"/>
        <path d="M2987.05,2124.36h-1.64v5.02h-4.52v-16.41h7.11c3.54,0,6.1,2.38,6.1,5.81,0,2.01-.98,3.66-2.6,4.63l3.26,5.97h-5.04l-2.66-5.02ZM2985.41,2120.55h2.06c1.26,0,1.99-.76,1.99-1.79s-.73-1.78-1.99-1.78h-2.06v3.56Z"/>
        <path d="M3011.38,2112.97v16.41h-3.74l-6.52-8.9v8.9h-4.38v-16.41h3.96l6.3,8.61v-8.61h4.38Z"/>
        <path d="M3025.25,2125.46v3.92h-10.7v-16.41h10.5v3.91h-6v2.42h5.39v3.71h-5.39v2.46h6.2ZM3021.29,2111.53h-3.2l1.66-3.64h4.55l-3.01,3.64Z"/>
        <path d="M3038.27,2125.24v4.14h-10.42v-16.41h4.58v12.27h5.84Z"/>
        <path d="M3040.3,2112.97h4.58v16.41h-4.58v-16.41Z"/>
        <path d="M3047.2,2121.17c0-5.01,3.76-8.62,9.04-8.62s9.01,3.59,9.01,8.62-3.75,8.62-9.01,8.62-9.04-3.6-9.04-8.62ZM3060.54,2121.17c0-2.57-1.81-4.41-4.3-4.41s-4.33,1.86-4.33,4.41,1.83,4.41,4.33,4.41,4.3-1.84,4.3-4.41Z"/>
        <path d="M3085.71,2118.9c0,3.44-2.59,5.95-6.08,5.95h-2.46v4.53h-4.53v-16.41h6.99c3.49,0,6.08,2.49,6.08,5.93ZM3081.07,2118.91c0-1.17-.78-1.99-1.97-1.99h-1.91v3.98h1.91c1.19,0,1.97-.83,1.97-1.99Z"/>
        <path d="M3093.93,2124.36h-1.64v5.02h-4.52v-16.41h7.11c3.54,0,6.1,2.38,6.1,5.81,0,2.01-.98,3.66-2.6,4.63l3.26,5.97h-5.04l-2.66-5.02ZM3092.29,2120.55h2.06c1.26,0,1.99-.76,1.99-1.79s-.73-1.78-1.99-1.78h-2.06v3.56Z"/>
        <path d="M3102.62,2121.17c0-5.01,3.76-8.62,9.04-8.62s9.01,3.59,9.01,8.62-3.75,8.62-9.01,8.62-9.04-3.6-9.04-8.62ZM3115.96,2121.17c0-2.57-1.81-4.41-4.3-4.41s-4.33,1.86-4.33,4.41,1.83,4.41,4.33,4.41,4.3-1.84,4.3-4.41Z"/>
        <path d="M3122.13,2121.19c0-4.93,3.73-8.63,8.72-8.63,4.3,0,7.63,2.84,8.3,7h-4.58c-.56-1.68-1.98-2.77-3.71-2.77-2.32,0-4.03,1.87-4.03,4.41s1.7,4.37,4.03,4.37c1.82,0,3.25-1.19,3.71-3.01h4.62c-.62,4.31-3.97,7.24-8.34,7.24-4.99,0-8.72-3.7-8.72-8.6Z"/>
        <path d="M3140.5,2121.17c0-5.01,3.76-8.62,9.04-8.62s9.01,3.59,9.01,8.62-3.75,8.62-9.01,8.62-9.04-3.6-9.04-8.62ZM3153.84,2121.17c0-2.57-1.81-4.41-4.3-4.41s-4.33,1.86-4.33,4.41,1.83,4.41,4.33,4.41,4.3-1.84,4.3-4.41ZM3149.44,2107.89h4.55l-3.01,3.64h-3.2l1.66-3.64Z"/>
        <path d="M3173.93,2118.9c0,3.44-2.59,5.95-6.08,5.95h-2.46v4.53h-4.53v-16.41h6.99c3.49,0,6.08,2.49,6.08,5.93ZM3169.28,2118.91c0-1.17-.78-1.99-1.97-1.99h-1.91v3.98h1.91c1.19,0,1.97-.83,1.97-1.99Z"/>
        <path d="M3175.99,2112.97h4.58v16.41h-4.58v-16.41Z"/>
        <path d="M3182.89,2121.17c0-5.01,3.76-8.62,9.04-8.62s9.01,3.59,9.01,8.62-3.75,8.62-9.01,8.62-9.04-3.6-9.04-8.62ZM3196.23,2121.17c0-2.57-1.81-4.41-4.3-4.41s-4.33,1.86-4.33,4.41,1.83,4.41,4.33,4.41,4.3-1.84,4.3-4.41Z"/>
      </g>
      <circle id="cornelioprocopio-2" data-name="cornelioprocopio" cx="3182.62" cy="2077.98" r="28.6" fill="#2cb86a"/>
    </g>
  </g>
  <g id="SUDESTE-2" data-name="SUDESTE">
    <g id="itapeva">
      <circle id="itapeva-2" data-name="itapeva" cx="3312.78" cy="2070.43" r="28.09" fill="#b560a3"/>
      <rect x="3276.03" y="2091.52" width="115.39" height="42.61" fill="#c4cedb"/>
      <g>
        <path d="M3285.3,2105.45h4.58v16.41h-4.58v-16.41Z"/>
        <path d="M3305.37,2109.52h-4.46v12.34h-4.54v-12.34h-4.46v-4.07h13.45v4.07Z"/>
        <path d="M3315.7,2119.19h-5.82l-.91,2.67h-4.84l6.44-16.41h4.42l6.59,16.41h-4.98l-.9-2.67ZM3312.78,2110.57l-1.8,5.08h3.61l-1.81-5.08Z"/>
        <path d="M3336.23,2111.37c0,3.44-2.59,5.95-6.08,5.95h-2.46v4.53h-4.53v-16.41h6.99c3.49,0,6.08,2.49,6.08,5.93ZM3331.58,2111.38c0-1.17-.78-1.99-1.97-1.99h-1.91v3.98h1.91c1.19,0,1.97-.83,1.97-1.99Z"/>
        <path d="M3348.98,2117.93v3.92h-10.7v-16.41h10.5v3.91h-6v2.42h5.39v3.71h-5.39v2.46h6.2Z"/>
        <path d="M3366.9,2105.45l-6.28,16.41h-4.21l-6.42-16.41h5.16l3.35,10.2,3.27-10.2h5.13Z"/>
        <path d="M3376.67,2119.19h-5.82l-.91,2.67h-4.84l6.44-16.41h4.42l6.59,16.41h-4.98l-.9-2.67ZM3373.76,2110.57l-1.8,5.08h3.61l-1.81-5.08Z"/>
      </g>
    </g>
    <g id="santoandre">
      <circle id="santoandre-2" data-name="santoandre" cx="3543.77" cy="2116.61" r="30.14" fill="#b560a3"/>
      <rect x="3514.75" y="2125.44" width="184.83" height="42.61" fill="#c4cedb"/>
      <g>
        <path d="M3523.23,2150.47h4.66c0,1.17.9,1.74,1.93,1.74.95,0,1.85-.5,1.85-1.4,0-1.03-1.28-1.33-2.84-1.71-2.37-.59-5.4-1.32-5.4-5.05,0-3.23,2.37-5.08,6.24-5.08s6.19,2.02,6.19,5.36h-4.53c0-1.04-.77-1.52-1.71-1.52-.81,0-1.58.35-1.58,1.11,0,.93,1.24,1.24,2.78,1.63,2.42.62,5.57,1.43,5.57,5.18s-2.75,5.44-6.56,5.44c-4.02,0-6.61-2.12-6.61-5.7Z"/>
        <path d="M3548.14,2153.11h-5.82l-.91,2.67h-4.84l6.44-16.41h4.42l6.59,16.41h-4.98l-.9-2.67ZM3545.22,2144.49l-1.8,5.08h3.61l-1.81-5.08Z"/>
        <path d="M3570.24,2139.36v16.41h-3.74l-6.52-8.9v8.9h-4.38v-16.41h3.96l6.3,8.61v-8.61h4.38Z"/>
        <path d="M3585.73,2143.43h-4.46v12.34h-4.54v-12.34h-4.46v-4.07h13.45v4.07Z"/>
        <path d="M3586.47,2147.57c0-5.01,3.76-8.62,9.04-8.62s9.01,3.59,9.01,8.62-3.75,8.62-9.01,8.62-9.04-3.6-9.04-8.62ZM3599.81,2147.57c0-2.57-1.81-4.41-4.3-4.41s-4.33,1.86-4.33,4.41,1.83,4.41,4.33,4.41,4.3-1.84,4.3-4.41Z"/>
        <path d="M3621.33,2153.11h-5.82l-.91,2.67h-4.84l6.44-16.41h4.42l6.59,16.41h-4.98l-.9-2.67ZM3618.41,2144.49l-1.8,5.08h3.61l-1.81-5.08Z"/>
        <path d="M3643.43,2139.36v16.41h-3.74l-6.52-8.9v8.9h-4.38v-16.41h3.96l6.3,8.61v-8.61h4.38Z"/>
        <path d="M3661.72,2147.55c0,4.79-3.52,8.22-8.47,8.22h-6.64v-16.41h6.64c4.97,0,8.47,3.4,8.47,8.19ZM3657.09,2147.55c0-2.43-1.62-4.05-4.05-4.05h-1.89v8.13h1.89c2.43,0,4.05-1.66,4.05-4.08Z"/>
        <path d="M3670.24,2150.75h-1.64v5.02h-4.52v-16.41h7.11c3.54,0,6.1,2.38,6.1,5.81,0,2.01-.98,3.66-2.6,4.63l3.26,5.97h-5.04l-2.66-5.02ZM3668.6,2146.94h2.06c1.26,0,1.99-.76,1.99-1.79s-.73-1.78-1.99-1.78h-2.06v3.56Z"/>
        <path d="M3690.62,2151.85v3.92h-10.7v-16.41h10.5v3.91h-6v2.42h5.39v3.71h-5.39v2.46h6.2ZM3686.66,2137.92h-3.2l1.66-3.64h4.55l-3.01,3.64Z"/>
      </g>
    </g>
    <g id="sorocaba">
      <circle id="sorocaba-2" data-name="sorocaba" cx="3426.62" cy="2052.11" r="27.91" fill="#b560a3"/>
      <rect x="3296.65" y="2000.09" width="153.3" height="42.61" fill="#c4cedb"/>
      <g>
        <path d="M3305.12,2025.13h4.66c0,1.17.9,1.74,1.93,1.74.95,0,1.85-.5,1.85-1.4,0-1.03-1.28-1.33-2.84-1.71-2.37-.59-5.4-1.32-5.4-5.05,0-3.23,2.37-5.08,6.24-5.08s6.19,2.02,6.19,5.36h-4.53c0-1.04-.77-1.52-1.71-1.52-.81,0-1.58.35-1.58,1.11,0,.93,1.24,1.24,2.78,1.63,2.42.62,5.57,1.43,5.57,5.18s-2.75,5.44-6.56,5.44c-4.02,0-6.61-2.12-6.61-5.7Z"/>
        <path d="M3319.81,2022.22c0-5.01,3.76-8.62,9.04-8.62s9.01,3.59,9.01,8.62-3.75,8.62-9.01,8.62-9.04-3.6-9.04-8.62ZM3333.15,2022.22c0-2.57-1.81-4.41-4.3-4.41s-4.33,1.86-4.33,4.41,1.83,4.41,4.33,4.41,4.3-1.84,4.3-4.41Z"/>
        <path d="M3346.33,2025.41h-1.64v5.02h-4.52v-16.41h7.11c3.54,0,6.1,2.38,6.1,5.81,0,2.01-.98,3.66-2.6,4.63l3.26,5.97h-5.04l-2.66-5.02ZM3344.69,2021.6h2.06c1.26,0,1.99-.76,1.99-1.79s-.73-1.78-1.99-1.78h-2.06v3.56Z"/>
        <path d="M3355.02,2022.22c0-5.01,3.76-8.62,9.04-8.62s9.01,3.59,9.01,8.62-3.75,8.62-9.01,8.62-9.04-3.6-9.04-8.62ZM3368.36,2022.22c0-2.57-1.81-4.41-4.3-4.41s-4.33,1.86-4.33,4.41,1.83,4.41,4.33,4.41,4.3-1.84,4.3-4.41Z"/>
        <path d="M3374.53,2022.24c0-4.93,3.73-8.63,8.72-8.63,4.3,0,7.63,2.84,8.3,7h-4.58c-.56-1.68-1.98-2.77-3.71-2.77-2.32,0-4.03,1.87-4.03,4.41s1.7,4.37,4.03,4.37c1.82,0,3.25-1.19,3.71-3.01h4.62c-.62,4.31-3.97,7.24-8.34,7.24-4.99,0-8.72-3.7-8.72-8.6Z"/>
        <path d="M3403.08,2027.76h-5.82l-.91,2.67h-4.84l6.44-16.41h4.42l6.59,16.41h-4.98l-.9-2.67ZM3400.16,2019.14l-1.8,5.08h3.61l-1.81-5.08Z"/>
        <path d="M3423.43,2025.75c0,2.66-2.29,4.67-5.32,4.67h-7.56v-16.41h7.41c2.91,0,5.03,1.78,5.03,4.2,0,1.47-.82,2.79-2.07,3.54,1.55.73,2.52,2.2,2.52,3.99ZM3418.96,2025.22c0-.87-.64-1.49-1.62-1.49h-2.46v2.98h2.46c.98,0,1.62-.61,1.62-1.5ZM3418.7,2018.97c0-.85-.58-1.43-1.53-1.43h-2.28v2.86h2.28c.95,0,1.53-.58,1.53-1.43h0Z"/>
        <path d="M3435.32,2027.76h-5.82l-.91,2.67h-4.84l6.44-16.41h4.42l6.59,16.41h-4.98l-.9-2.67ZM3432.4,2019.14l-1.8,5.08h3.61l-1.81-5.08Z"/>
      </g>
    </g>
    <g id="bauru">
      <rect x="3337.34" y="1906.84" width="97.16" height="42.61" fill="#c4cedb"/>
      <g>
        <path d="M3359.5,1932.5c0,2.66-2.29,4.67-5.32,4.67h-7.56v-16.41h7.41c2.91,0,5.03,1.78,5.03,4.2,0,1.47-.82,2.79-2.07,3.54,1.55.73,2.52,2.2,2.52,3.99ZM3355.03,1931.96c0-.87-.64-1.49-1.62-1.49h-2.46v2.98h2.46c.98,0,1.62-.61,1.62-1.5ZM3354.77,1925.71c0-.85-.58-1.43-1.53-1.43h-2.28v2.86h2.28c.95,0,1.53-.58,1.53-1.43h0Z"/>
        <path d="M3371.39,1934.5h-5.82l-.91,2.67h-4.84l6.44-16.41h4.42l6.59,16.41h-4.98l-.9-2.67ZM3368.47,1925.88l-1.8,5.08h3.61l-1.81-5.08Z"/>
        <path d="M3378,1930.82v-10.06h4.62v9.98c0,1.6,1.03,2.64,2.54,2.64s2.54-1.04,2.54-2.64v-9.98h4.62v10.06c0,4.04-2.98,6.76-7.16,6.76s-7.16-2.73-7.16-6.76Z"/>
        <path d="M3401.49,1932.15h-1.64v5.02h-4.52v-16.41h7.11c3.54,0,6.1,2.38,6.1,5.81,0,2.01-.98,3.66-2.6,4.63l3.26,5.97h-5.04l-2.66-5.02ZM3399.85,1928.34h2.06c1.26,0,1.99-.76,1.99-1.79s-.73-1.78-1.99-1.78h-2.06v3.56Z"/>
        <path d="M3411.01,1930.82v-10.06h4.62v9.98c0,1.6,1.03,2.64,2.54,2.64s2.54-1.04,2.54-2.64v-9.98h4.62v10.06c0,4.04-2.98,6.76-7.16,6.76s-7.16-2.73-7.16-6.76Z"/>
      </g>
      <circle id="bauru-2" data-name="bauru" cx="3385.93" cy="1970.6" r="27.91" fill="#b560a3"/>
    </g>
    <g id="voltaredonda">
      <circle id="voltaredonda-2" data-name="voltaredonda" cx="3704.36" cy="1983.26" r="28.56" fill="#b560a3"/>
      <rect x="3695.16" y="1940.37" width="213.91" height="42.61" fill="#c4cedb"/>
      <g>
        <path d="M3719.75,1954.29l-6.28,16.41h-4.21l-6.42-16.41h5.16l3.35,10.2,3.27-10.2h5.13Z"/>
        <path d="M3719.78,1962.49c0-5.01,3.76-8.62,9.04-8.62s9.01,3.59,9.01,8.62-3.75,8.62-9.01,8.62-9.04-3.6-9.04-8.62ZM3733.12,1962.49c0-2.57-1.81-4.41-4.3-4.41s-4.33,1.86-4.33,4.41,1.83,4.41,4.33,4.41,4.3-1.84,4.3-4.41Z"/>
        <path d="M3750.56,1966.56v4.14h-10.42v-16.41h4.58v12.27h5.84Z"/>
        <path d="M3762.85,1958.36h-4.46v12.34h-4.54v-12.34h-4.46v-4.07h13.45v4.07Z"/>
        <path d="M3773.18,1968.03h-5.82l-.91,2.67h-4.84l6.44-16.41h4.42l6.59,16.41h-4.98l-.9-2.67ZM3770.27,1959.41l-1.8,5.08h3.61l-1.81-5.08Z"/>
        <path d="M3791.31,1965.68h-1.64v5.02h-4.52v-16.41h7.11c3.54,0,6.1,2.38,6.1,5.81,0,2.01-.98,3.66-2.6,4.63l3.26,5.97h-5.04l-2.66-5.02ZM3789.67,1961.87h2.06c1.26,0,1.99-.76,1.99-1.79s-.73-1.78-1.99-1.78h-2.06v3.56Z"/>
        <path d="M3811.69,1966.78v3.92h-10.7v-16.41h10.5v3.91h-6v2.42h5.39v3.71h-5.39v2.46h6.2Z"/>
        <path d="M3829.4,1962.48c0,4.79-3.52,8.22-8.47,8.22h-6.64v-16.41h6.64c4.97,0,8.47,3.4,8.47,8.19ZM3824.77,1962.48c0-2.43-1.62-4.05-4.05-4.05h-1.89v8.13h1.89c2.43,0,4.05-1.66,4.05-4.08Z"/>
        <path d="M3830.9,1962.49c0-5.01,3.76-8.62,9.04-8.62s9.01,3.59,9.01,8.62-3.75,8.62-9.01,8.62-9.04-3.6-9.04-8.62ZM3844.24,1962.49c0-2.57-1.81-4.41-4.3-4.41s-4.33,1.86-4.33,4.41,1.83,4.41,4.33,4.41,4.3-1.84,4.3-4.41Z"/>
        <path d="M3865.9,1954.29v16.41h-3.74l-6.52-8.9v8.9h-4.38v-16.41h3.96l6.3,8.61v-8.61h4.38Z"/>
        <path d="M3884.19,1962.48c0,4.79-3.52,8.22-8.47,8.22h-6.64v-16.41h6.64c4.97,0,8.47,3.4,8.47,8.19ZM3879.55,1962.48c0-2.43-1.62-4.05-4.05-4.05h-1.89v8.13h1.89c2.43,0,4.05-1.66,4.05-4.08Z"/>
        <path d="M3895.72,1968.03h-5.82l-.91,2.67h-4.84l6.44-16.41h4.42l6.59,16.41h-4.98l-.9-2.67ZM3892.8,1959.41l-1.8,5.08h3.61l-1.81-5.08Z"/>
      </g>
    </g>
    <g id="petropolis">
      <circle id="petropolis-2" data-name="petropolis" cx="3968.3" cy="1961.67" r="26.14" fill="#b560a3"/>
      <rect x="3943.73" y="1904.99" width="163.67" height="42.61" fill="#c4cedb"/>
      <g>
        <path d="M3966.07,1924.84c0,3.44-2.59,5.95-6.08,5.95h-2.46v4.53h-4.53v-16.41h6.99c3.49,0,6.08,2.49,6.08,5.93ZM3961.42,1924.85c0-1.17-.78-1.99-1.97-1.99h-1.91v3.98h1.91c1.19,0,1.97-.83,1.97-1.99Z"/>
        <path d="M3978.82,1931.4v3.92h-10.7v-16.41h10.5v3.91h-6v2.42h5.39v3.71h-5.39v2.46h6.2Z"/>
        <path d="M3993.72,1922.98h-4.46v12.34h-4.54v-12.34h-4.46v-4.07h13.45v4.07Z"/>
        <path d="M4001.9,1930.3h-1.64v5.02h-4.52v-16.41h7.11c3.54,0,6.1,2.38,6.1,5.81,0,2.01-.98,3.66-2.6,4.63l3.26,5.97h-5.04l-2.66-5.02ZM4000.26,1926.49h2.06c1.26,0,1.99-.76,1.99-1.79s-.73-1.78-1.99-1.78h-2.06v3.56Z"/>
        <path d="M4010.59,1927.12c0-5.01,3.76-8.62,9.04-8.62s9.01,3.59,9.01,8.62-3.75,8.62-9.01,8.62-9.04-3.6-9.04-8.62ZM4023.93,1927.12c0-2.57-1.81-4.41-4.3-4.41s-4.33,1.86-4.33,4.41,1.83,4.41,4.33,4.41,4.3-1.84,4.3-4.41ZM4019.53,1913.83h4.55l-3.01,3.64h-3.2l1.66-3.64Z"/>
        <path d="M4044.02,1924.84c0,3.44-2.59,5.95-6.08,5.95h-2.46v4.53h-4.53v-16.41h6.99c3.49,0,6.08,2.49,6.08,5.93ZM4039.37,1924.85c0-1.17-.78-1.99-1.97-1.99h-1.91v3.98h1.91c1.19,0,1.97-.83,1.97-1.99Z"/>
        <path d="M4045.22,1927.12c0-5.01,3.76-8.62,9.04-8.62s9.01,3.59,9.01,8.62-3.75,8.62-9.01,8.62-9.04-3.6-9.04-8.62ZM4058.56,1927.12c0-2.57-1.81-4.41-4.3-4.41s-4.33,1.86-4.33,4.41,1.83,4.41,4.33,4.41,4.3-1.84,4.3-4.41Z"/>
        <path d="M4076,1931.18v4.14h-10.42v-16.41h4.58v12.27h5.84Z"/>
        <path d="M4078.03,1918.91h4.58v16.41h-4.58v-16.41Z"/>
        <path d="M4084.99,1930.02h4.66c0,1.17.9,1.74,1.93,1.74.95,0,1.85-.5,1.85-1.4,0-1.03-1.28-1.33-2.84-1.71-2.37-.59-5.4-1.32-5.4-5.05,0-3.23,2.37-5.08,6.24-5.08s6.19,2.02,6.19,5.36h-4.53c0-1.04-.77-1.52-1.71-1.52-.81,0-1.58.35-1.58,1.11,0,.93,1.24,1.24,2.78,1.63,2.42.62,5.57,1.43,5.57,5.18s-2.75,5.44-6.56,5.44c-4.02,0-6.61-2.12-6.61-5.7Z"/>
      </g>
    </g>
    <g id="vitoria">
      <circle id="vitoria-2" data-name="vitoria" cx="4027.39" cy="1856.73" r="26.14" fill="#b560a3"/>
      <rect x="4024.78" y="1804.23" width="115.56" height="42.61" fill="#c4cedb"/>
      <g>
        <path d="M4049.38,1818.16l-6.28,16.41h-4.21l-6.42-16.41h5.16l3.35,10.2,3.27-10.2h5.13Z"/>
        <path d="M4051.03,1818.16h4.58v16.41h-4.58v-16.41Z"/>
        <path d="M4071.09,1822.23h-4.46v12.34h-4.54v-12.34h-4.46v-4.07h13.45v4.07Z"/>
        <path d="M4071.83,1826.36c0-5.01,3.76-8.62,9.04-8.62s9.01,3.59,9.01,8.62-3.75,8.62-9.01,8.62-9.04-3.6-9.04-8.62ZM4085.18,1826.36c0-2.57-1.81-4.41-4.3-4.41s-4.33,1.86-4.33,4.41,1.83,4.41,4.33,4.41,4.3-1.84,4.3-4.41ZM4080.77,1813.08h4.55l-3.01,3.64h-3.2l1.66-3.64Z"/>
        <path d="M4098.36,1829.55h-1.64v5.02h-4.52v-16.41h7.11c3.54,0,6.1,2.38,6.1,5.81,0,2.01-.98,3.66-2.6,4.63l3.26,5.97h-5.04l-2.66-5.02ZM4096.72,1825.74h2.06c1.26,0,1.99-.76,1.99-1.79s-.73-1.78-1.99-1.78h-2.06v3.56Z"/>
        <path d="M4108.04,1818.16h4.58v16.41h-4.58v-16.41Z"/>
        <path d="M4125.78,1831.9h-5.82l-.91,2.67h-4.84l6.44-16.41h4.42l6.59,16.41h-4.98l-.9-2.67ZM4122.86,1823.28l-1.8,5.08h3.61l-1.81-5.08Z"/>
      </g>
    </g>
    <g id="florestal">
      <circle id="vicosa" cx="3737.8" cy="1904.33" r="28.6" fill="#b560a3"/>
      <rect x="3709.2" y="1845.52" width="143.22" height="42.61" fill="#c4cedb"/>
      <g>
        <path d="M3721.92,1863.29v2.61h5.27v3.96h-5.27v5.75h-4.56v-16.41h10.44v4.09h-5.88Z"/>
        <path d="M3740.62,1871.47v4.14h-10.42v-16.41h4.58v12.27h5.84Z"/>
        <path d="M3741.33,1867.4c0-5.01,3.76-8.62,9.04-8.62s9.01,3.59,9.01,8.62-3.75,8.62-9.01,8.62-9.04-3.6-9.04-8.62ZM3754.67,1867.4c0-2.57-1.81-4.41-4.3-4.41s-4.33,1.86-4.33,4.41,1.83,4.41,4.33,4.41,4.3-1.84,4.3-4.41Z"/>
        <path d="M3767.85,1870.59h-1.64v5.02h-4.52v-16.41h7.11c3.54,0,6.1,2.38,6.1,5.81,0,2.01-.98,3.66-2.6,4.63l3.26,5.97h-5.04l-2.66-5.02ZM3766.21,1866.78h2.06c1.26,0,1.99-.76,1.99-1.79s-.73-1.78-1.99-1.78h-2.06v3.56Z"/>
        <path d="M3788.23,1871.69v3.92h-10.7v-16.41h10.5v3.91h-6v2.42h5.39v3.71h-5.39v2.46h6.2Z"/>
        <path d="M3790.03,1870.31h4.66c0,1.17.9,1.74,1.93,1.74.95,0,1.85-.5,1.85-1.4,0-1.03-1.28-1.33-2.84-1.71-2.37-.59-5.4-1.32-5.4-5.05,0-3.23,2.37-5.08,6.24-5.08s6.19,2.02,6.19,5.36h-4.53c0-1.04-.77-1.52-1.71-1.52-.81,0-1.58.35-1.58,1.11,0,.93,1.24,1.24,2.78,1.63,2.42.62,5.57,1.43,5.57,5.18s-2.75,5.44-6.56,5.44c-4.02,0-6.61-2.12-6.61-5.7Z"/>
        <path d="M3817.55,1863.27h-4.46v12.34h-4.54v-12.34h-4.46v-4.07h13.45v4.07Z"/>
        <path d="M3827.88,1872.94h-5.82l-.91,2.67h-4.84l6.44-16.41h4.42l6.59,16.41h-4.98l-.9-2.67ZM3824.97,1864.32l-1.8,5.08h3.61l-1.81-5.08Z"/>
        <path d="M3845.77,1871.47v4.14h-10.42v-16.41h4.58v12.27h5.84Z"/>
      </g>
    </g>
    <g id="juizdefora">
      <circle id="jf" cx="3620.84" cy="1861.53" r="28.6" fill="#b560a3"/>
      <rect x="3472.26" y="1803.57" width="178.36" height="42.61" fill="#c4cedb"/>
      <g>
        <path d="M3480.31,1828.28v-.65h4.55v.42c0,1.26.74,2.06,1.86,2.06s1.81-.8,1.81-2.06v-10.55h4.55v10.78c0,3.56-2.56,6.04-6.36,6.04s-6.42-2.47-6.42-6.04Z"/>
        <path d="M3495.94,1827.55v-10.06h4.62v9.98c0,1.6,1.03,2.64,2.54,2.64s2.54-1.04,2.54-2.64v-9.98h4.62v10.06c0,4.04-2.98,6.76-7.16,6.76s-7.16-2.73-7.16-6.76Z"/>
        <path d="M3513.27,1817.49h4.58v16.41h-4.58v-16.41Z"/>
        <path d="M3532.97,1829.69v4.21h-12.99v-.94l6.08-11.26h-5.68v-4.21h12.31v1.02l-6.05,11.18h6.33Z"/>
        <path d="M3555.36,1825.68c0,4.79-3.52,8.22-8.47,8.22h-6.64v-16.41h6.64c4.97,0,8.47,3.4,8.47,8.19ZM3550.73,1825.68c0-2.43-1.62-4.05-4.05-4.05h-1.89v8.13h1.89c2.43,0,4.05-1.66,4.05-4.08Z"/>
        <path d="M3568.42,1829.98v3.92h-10.7v-16.41h10.5v3.91h-6v2.42h5.39v3.71h-5.39v2.46h6.2Z"/>
        <path d="M3580.66,1821.58v2.61h5.27v3.96h-5.27v5.75h-4.56v-16.41h10.44v4.09h-5.88Z"/>
        <path d="M3587.92,1825.7c0-5.01,3.76-8.62,9.04-8.62s9.01,3.59,9.01,8.62-3.75,8.62-9.01,8.62-9.04-3.6-9.04-8.62ZM3601.27,1825.7c0-2.57-1.81-4.41-4.3-4.41s-4.33,1.86-4.33,4.41,1.83,4.41,4.33,4.41,4.3-1.84,4.3-4.41Z"/>
        <path d="M3614.44,1828.88h-1.64v5.02h-4.52v-16.41h7.11c3.54,0,6.1,2.38,6.1,5.81,0,2.01-.98,3.66-2.6,4.63l3.26,5.97h-5.04l-2.66-5.02ZM3612.81,1825.07h2.06c1.26,0,1.99-.76,1.99-1.79s-.73-1.78-1.99-1.78h-2.06v3.56Z"/>
        <path d="M3634.04,1831.24h-5.82l-.91,2.67h-4.84l6.44-16.41h4.42l6.59,16.41h-4.98l-.9-2.67ZM3631.12,1822.62l-1.8,5.08h3.61l-1.81-5.08Z"/>
      </g>
    </g>
    <g id="araras">
      <circle id="araras-2" data-name="araras" cx="3401.96" cy="1867.36" r="25.33" fill="#b560a3"/>
      <rect x="3344.55" y="1813.07" width="114.83" height="42.61" fill="#c4cedb"/>
      <g>
        <path d="M3363.8,1840.74h-5.82l-.91,2.67h-4.84l6.44-16.41h4.42l6.59,16.41h-4.98l-.9-2.67ZM3360.88,1832.12l-1.8,5.08h3.61l-1.81-5.08Z"/>
        <path d="M3377.42,1838.39h-1.64v5.02h-4.52v-16.41h7.11c3.54,0,6.1,2.38,6.1,5.81,0,2.01-.98,3.66-2.6,4.63l3.26,5.97h-5.04l-2.66-5.02ZM3375.78,1834.58h2.06c1.26,0,1.99-.76,1.99-1.79s-.73-1.78-1.99-1.78h-2.06v3.56Z"/>
        <path d="M3397.02,1840.74h-5.82l-.91,2.67h-4.84l6.44-16.41h4.42l6.59,16.41h-4.98l-.9-2.67ZM3394.1,1832.12l-1.8,5.08h3.61l-1.81-5.08Z"/>
        <path d="M3410.64,1838.39h-1.64v5.02h-4.52v-16.41h7.11c3.54,0,6.1,2.38,6.1,5.81,0,2.01-.98,3.66-2.6,4.63l3.26,5.97h-5.04l-2.66-5.02ZM3409,1834.58h2.06c1.26,0,1.99-.76,1.99-1.79s-.73-1.78-1.99-1.78h-2.06v3.56Z"/>
        <path d="M3430.24,1840.74h-5.82l-.91,2.67h-4.84l6.44-16.41h4.42l6.59,16.41h-4.98l-.9-2.67ZM3427.32,1832.12l-1.8,5.08h3.61l-1.81-5.08Z"/>
        <path d="M3436.22,1838.11h4.66c0,1.17.9,1.74,1.93,1.74.95,0,1.85-.5,1.85-1.4,0-1.03-1.28-1.33-2.84-1.71-2.37-.59-5.4-1.32-5.4-5.05,0-3.23,2.37-5.08,6.24-5.08s6.19,2.02,6.19,5.36h-4.53c0-1.04-.77-1.52-1.71-1.52-.81,0-1.58.35-1.58,1.11,0,.93,1.24,1.24,2.78,1.63,2.42.62,5.57,1.43,5.57,5.18s-2.75,5.44-6.56,5.44c-4.02,0-6.61-2.12-6.61-5.7Z"/>
      </g>
    </g>
    <g id="uberlandia">
      <circle id="uberlandiia" cx="3324.74" cy="1788.87" r="27.79" fill="#b560a3"/>
      <rect x="3202.13" y="1732.12" width="165.28" height="42.61" fill="#c4cedb"/>
      <g>
        <path d="M3211.23,1756.1v-10.06h4.62v9.98c0,1.6,1.03,2.64,2.54,2.64s2.54-1.04,2.54-2.64v-9.98h4.62v10.06c0,4.04-2.98,6.76-7.16,6.76s-7.16-2.73-7.16-6.76Z"/>
        <path d="M3241.45,1757.78c0,2.66-2.29,4.67-5.32,4.67h-7.56v-16.41h7.41c2.91,0,5.03,1.78,5.03,4.2,0,1.47-.82,2.79-2.07,3.54,1.55.73,2.52,2.2,2.52,3.99ZM3236.97,1757.24c0-.87-.64-1.49-1.62-1.49h-2.46v2.98h2.46c.98,0,1.62-.61,1.62-1.5ZM3236.71,1750.99c0-.85-.58-1.43-1.53-1.43h-2.28v2.86h2.28c.95,0,1.53-.58,1.53-1.43h0Z"/>
        <path d="M3254.52,1758.53v3.92h-10.7v-16.41h10.5v3.91h-6v2.42h5.39v3.71h-5.39v2.46h6.2Z"/>
        <path d="M3263.27,1757.43h-1.64v5.02h-4.52v-16.41h7.11c3.54,0,6.1,2.38,6.1,5.81,0,2.01-.98,3.66-2.6,4.63l3.26,5.97h-5.04l-2.66-5.02ZM3261.63,1753.62h2.06c1.26,0,1.99-.76,1.99-1.79s-.73-1.78-1.99-1.78h-2.06v3.56Z"/>
        <path d="M3283.38,1758.31v4.14h-10.42v-16.41h4.58v12.27h5.84Z"/>
        <path d="M3295.39,1759.78h-5.82l-.91,2.67h-4.84l6.44-16.41h4.42l6.59,16.41h-4.98l-.9-2.67ZM3290.78,1744.6h-3.4l2.78-3.64h4.58l2.79,3.64h-3.39l-1.69-1.67-1.67,1.67ZM3292.47,1751.16l-1.8,5.08h3.61l-1.81-5.08Z"/>
        <path d="M3317.49,1746.04v16.41h-3.74l-6.52-8.9v8.9h-4.38v-16.41h3.96l6.3,8.61v-8.61h4.38Z"/>
        <path d="M3335.78,1754.23c0,4.79-3.52,8.22-8.47,8.22h-6.64v-16.41h6.64c4.97,0,8.47,3.4,8.47,8.19ZM3331.14,1754.23c0-2.43-1.62-4.05-4.05-4.05h-1.89v8.13h1.89c2.43,0,4.05-1.66,4.05-4.08Z"/>
        <path d="M3338.13,1746.04h4.58v16.41h-4.58v-16.41Z"/>
        <path d="M3355.87,1759.78h-5.82l-.91,2.67h-4.84l6.44-16.41h4.42l6.59,16.41h-4.98l-.9-2.67ZM3352.95,1751.16l-1.8,5.08h3.61l-1.81-5.08Z"/>
      </g>
    </g>
    <g id="patrocinio">
      <circle id="patrocinio-2" data-name="patrocinio" cx="3445.09" cy="1767.4" r="27.79" fill="#b560a3"/>
      <rect x="3413.28" y="1710.81" width="165.28" height="42.61" fill="#c4cedb"/>
      <g>
        <path d="M3435.61,1730.67c0,3.44-2.59,5.95-6.08,5.95h-2.46v4.53h-4.53v-16.41h6.99c3.49,0,6.08,2.49,6.08,5.93ZM3430.97,1730.67c0-1.17-.78-1.99-1.97-1.99h-1.91v3.98h1.91c1.19,0,1.97-.83,1.97-1.99Z"/>
        <path d="M3446.31,1738.48h-5.82l-.91,2.67h-4.84l6.44-16.41h4.42l6.59,16.41h-4.98l-.9-2.67ZM3443.39,1729.86l-1.8,5.08h3.61l-1.81-5.08Z"/>
        <path d="M3464.41,1728.81h-4.46v12.34h-4.54v-12.34h-4.46v-4.07h13.45v4.07Z"/>
        <path d="M3472.59,1736.12h-1.64v5.02h-4.52v-16.41h7.11c3.54,0,6.1,2.38,6.1,5.81,0,2.01-.98,3.66-2.6,4.63l3.26,5.97h-5.04l-2.66-5.02ZM3470.96,1732.32h2.06c1.26,0,1.99-.76,1.99-1.79s-.73-1.78-1.99-1.78h-2.06v3.56Z"/>
        <path d="M3481.29,1732.94c0-5.01,3.76-8.62,9.04-8.62s9.01,3.59,9.01,8.62-3.75,8.62-9.01,8.62-9.04-3.6-9.04-8.62ZM3494.63,1732.94c0-2.57-1.81-4.41-4.3-4.41s-4.33,1.86-4.33,4.41,1.83,4.41,4.33,4.41,4.3-1.84,4.3-4.41Z"/>
        <path d="M3500.79,1732.95c0-4.93,3.73-8.63,8.72-8.63,4.3,0,7.63,2.84,8.3,7h-4.58c-.56-1.68-1.98-2.77-3.71-2.77-2.32,0-4.03,1.87-4.03,4.41s1.7,4.37,4.03,4.37c1.82,0,3.25-1.19,3.71-3.01h4.62c-.62,4.31-3.97,7.24-8.34,7.24-4.99,0-8.72-3.7-8.72-8.6Z"/>
        <path d="M3520.03,1724.74h4.58v16.41h-4.58v-16.41ZM3521.95,1719.66h4.45l-2.6,3.64h-3.15l1.3-3.64Z"/>
        <path d="M3542.42,1724.74v16.41h-3.74l-6.52-8.9v8.9h-4.38v-16.41h3.96l6.3,8.61v-8.61h4.38Z"/>
        <path d="M3545.6,1724.74h4.58v16.41h-4.58v-16.41Z"/>
        <path d="M3552.5,1732.94c0-5.01,3.76-8.62,9.04-8.62s9.01,3.59,9.01,8.62-3.75,8.62-9.01,8.62-9.04-3.6-9.04-8.62ZM3565.85,1732.94c0-2.57-1.81-4.41-4.3-4.41s-4.33,1.86-4.33,4.41,1.83,4.41,4.33,4.41,4.3-1.84,4.3-4.41Z"/>
      </g>
    </g>
    <g id="riodejaneiro">
      <circle id="rj" cx="3810.18" cy="2052.11" r="53.1" fill="#b560a3"/>
      <g id="rj-2" data-name="rj">
        <rect x="3653.03" y="2074.73" width="208.11" height="42.61" fill="#c4cedb"/>
        <g>
          <path d="M3668.46,2100.04h-1.64v5.02h-4.52v-16.41h7.11c3.54,0,6.1,2.38,6.1,5.81,0,2.01-.98,3.66-2.6,4.63l3.26,5.97h-5.04l-2.66-5.02ZM3666.82,2096.23h2.06c1.26,0,1.99-.76,1.99-1.79s-.73-1.78-1.99-1.78h-2.06v3.56Z"/>
          <path d="M3678.15,2088.66h4.58v16.41h-4.58v-16.41Z"/>
          <path d="M3685.05,2096.86c0-5.01,3.76-8.62,9.04-8.62s9.01,3.59,9.01,8.62-3.75,8.62-9.01,8.62-9.04-3.6-9.04-8.62ZM3698.39,2096.86c0-2.57-1.81-4.41-4.3-4.41s-4.33,1.86-4.33,4.41,1.83,4.41,4.33,4.41,4.3-1.84,4.3-4.41Z"/>
          <path d="M3725.61,2096.84c0,4.79-3.52,8.22-8.47,8.22h-6.64v-16.41h6.64c4.97,0,8.47,3.4,8.47,8.19ZM3720.98,2096.84c0-2.43-1.62-4.05-4.05-4.05h-1.89v8.13h1.89c2.43,0,4.05-1.66,4.05-4.08Z"/>
          <path d="M3738.66,2101.14v3.92h-10.7v-16.41h10.5v3.91h-6v2.42h5.39v3.71h-5.39v2.46h6.2Z"/>
          <path d="M3744.51,2099.44v-.65h4.55v.42c0,1.26.74,2.06,1.86,2.06s1.81-.8,1.81-2.06v-10.55h4.55v10.78c0,3.56-2.56,6.04-6.36,6.04s-6.42-2.47-6.42-6.04Z"/>
          <path d="M3769.71,2102.4h-5.82l-.91,2.67h-4.84l6.44-16.41h4.42l6.59,16.41h-4.98l-.9-2.67ZM3766.79,2093.78l-1.8,5.08h3.61l-1.81-5.08Z"/>
          <path d="M3791.81,2088.66v16.41h-3.74l-6.52-8.9v8.9h-4.38v-16.41h3.96l6.3,8.61v-8.61h4.38Z"/>
          <path d="M3805.69,2101.14v3.92h-10.7v-16.41h10.5v3.91h-6v2.42h5.39v3.71h-5.39v2.46h6.2Z"/>
          <path d="M3808.28,2088.66h4.58v16.41h-4.58v-16.41Z"/>
          <path d="M3822.2,2100.04h-1.64v5.02h-4.52v-16.41h7.11c3.54,0,6.1,2.38,6.1,5.81,0,2.01-.98,3.66-2.6,4.63l3.26,5.97h-5.04l-2.66-5.02ZM3820.56,2096.23h2.06c1.26,0,1.99-.76,1.99-1.79s-.73-1.78-1.99-1.78h-2.06v3.56Z"/>
          <path d="M3830.89,2096.86c0-5.01,3.76-8.62,9.04-8.62s9.01,3.59,9.01,8.62-3.75,8.62-9.01,8.62-9.04-3.6-9.04-8.62ZM3844.23,2096.86c0-2.57-1.81-4.41-4.3-4.41s-4.33,1.86-4.33,4.41,1.83,4.41,4.33,4.41,4.3-1.84,4.3-4.41Z"/>
        </g>
      </g>
    </g>
    <g id="saopaulo">
      <circle id="sp" cx="3598.99" cy="2056.86" r="30.14" fill="#b560a3"/>
      <g id="sp-2" data-name="sp">
        <rect x="3465.06" y="2001.27" width="150.19" height="42.61" fill="#c4cedb"/>
        <g>
          <path d="M3473.53,2026.3h4.66c0,1.17.9,1.74,1.93,1.74.95,0,1.85-.5,1.85-1.4,0-1.03-1.28-1.33-2.84-1.71-2.37-.59-5.4-1.32-5.4-5.05,0-3.23,2.37-5.08,6.24-5.08s6.19,2.02,6.19,5.36h-4.53c0-1.04-.77-1.52-1.71-1.52-.81,0-1.58.35-1.58,1.11,0,.93,1.24,1.24,2.78,1.63,2.42.62,5.57,1.43,5.57,5.18s-2.75,5.44-6.56,5.44c-4.02,0-6.61-2.12-6.61-5.7Z"/>
          <path d="M3498.45,2028.93h-5.82l-.91,2.67h-4.84l6.44-16.41h4.42l6.59,16.41h-4.98l-.9-2.67ZM3494.95,2013.09c-.4-.22-.73-.4-1.02-.41-.44-.02-.77.35-.77.84v.22h-2.37v-.28c0-2.08,1.07-3.44,3.02-3.44.95,0,1.62.39,2.18.74.38.25.73.46,1.08.46.47,0,.76-.33.76-.87v-.27h2.38v.31c0,2.14-1.13,3.44-2.99,3.44-.96,0-1.67-.42-2.27-.75ZM3495.53,2020.31l-1.8,5.08h3.61l-1.81-5.08Z"/>
          <path d="M3504.28,2023.4c0-5.01,3.76-8.62,9.04-8.62s9.01,3.59,9.01,8.62-3.75,8.62-9.01,8.62-9.04-3.6-9.04-8.62ZM3517.62,2023.4c0-2.57-1.81-4.41-4.3-4.41s-4.33,1.86-4.33,4.41,1.83,4.41,4.33,4.41,4.3-1.84,4.3-4.41Z"/>
          <path d="M3542.79,2021.12c0,3.44-2.59,5.95-6.08,5.95h-2.46v4.53h-4.53v-16.41h6.99c3.49,0,6.08,2.49,6.08,5.93ZM3538.15,2021.13c0-1.17-.78-1.99-1.97-1.99h-1.91v3.98h1.91c1.19,0,1.97-.83,1.97-1.99Z"/>
          <path d="M3553.49,2028.93h-5.82l-.91,2.67h-4.84l6.44-16.41h4.42l6.59,16.41h-4.98l-.9-2.67ZM3550.57,2020.31l-1.8,5.08h3.61l-1.81-5.08Z"/>
          <path d="M3560.1,2025.25v-10.06h4.62v9.98c0,1.6,1.03,2.64,2.54,2.64s2.54-1.04,2.54-2.64v-9.98h4.62v10.06c0,4.04-2.98,6.76-7.16,6.76s-7.16-2.73-7.16-6.76Z"/>
          <path d="M3587.85,2027.46v4.14h-10.42v-16.41h4.58v12.27h5.84Z"/>
          <path d="M3588.56,2023.4c0-5.01,3.76-8.62,9.04-8.62s9.01,3.59,9.01,8.62-3.75,8.62-9.01,8.62-9.04-3.6-9.04-8.62ZM3601.9,2023.4c0-2.57-1.81-4.41-4.3-4.41s-4.33,1.86-4.33,4.41,1.83,4.41,4.33,4.41,4.3-1.84,4.3-4.41Z"/>
        </g>
      </g>
    </g>
    <g id="belohorizonte">
      <circle id="bh" cx="3795.27" cy="1802.3" r="32.11" fill="#b560a3"/>
      <g id="bh-2" data-name="bh">
        <rect x="3780.81" y="1739.5" width="220.44" height="42.61" fill="#c4cedb"/>
        <g>
          <path d="M3802.97,1765.16c0,2.66-2.29,4.67-5.32,4.67h-7.56v-16.41h7.41c2.91,0,5.03,1.78,5.03,4.2,0,1.47-.82,2.79-2.07,3.54,1.55.73,2.52,2.2,2.52,3.99ZM3798.5,1764.62c0-.87-.64-1.49-1.62-1.49h-2.46v2.98h2.46c.98,0,1.62-.61,1.62-1.5ZM3798.24,1758.37c0-.85-.58-1.43-1.53-1.43h-2.28v2.86h2.28c.95,0,1.53-.58,1.53-1.43h0Z"/>
          <path d="M3816.04,1765.91v3.92h-10.7v-16.41h10.5v3.91h-6v2.42h5.39v3.71h-5.39v2.46h6.2Z"/>
          <path d="M3829.06,1765.69v4.14h-10.42v-16.41h4.58v12.27h5.84Z"/>
          <path d="M3829.76,1761.62c0-5.01,3.76-8.62,9.04-8.62s9.01,3.59,9.01,8.62-3.75,8.62-9.01,8.62-9.04-3.6-9.04-8.62ZM3843.1,1761.63c0-2.57-1.81-4.41-4.3-4.41s-4.33,1.86-4.33,4.41,1.83,4.41,4.33,4.41,4.3-1.84,4.3-4.41Z"/>
          <path d="M3869.25,1753.42v16.41h-4.56v-6.3h-4.92v6.3h-4.56v-16.41h4.56v5.92h4.92v-5.92h4.56Z"/>
          <path d="M3871.56,1761.62c0-5.01,3.76-8.62,9.04-8.62s9.01,3.59,9.01,8.62-3.75,8.62-9.01,8.62-9.04-3.6-9.04-8.62ZM3884.9,1761.63c0-2.57-1.81-4.41-4.3-4.41s-4.33,1.86-4.33,4.41,1.83,4.41,4.33,4.41,4.3-1.84,4.3-4.41Z"/>
          <path d="M3898.08,1764.81h-1.64v5.02h-4.52v-16.41h7.11c3.54,0,6.1,2.38,6.1,5.81,0,2.01-.98,3.66-2.6,4.63l3.26,5.97h-5.04l-2.66-5.02ZM3896.44,1761h2.06c1.26,0,1.99-.76,1.99-1.79s-.73-1.78-1.99-1.78h-2.06v3.56Z"/>
          <path d="M3907.77,1753.42h4.58v16.41h-4.58v-16.41Z"/>
          <path d="M3927.47,1765.62v4.21h-12.99v-.94l6.08-11.26h-5.68v-4.21h12.31v1.02l-6.05,11.18h6.33Z"/>
          <path d="M3928.5,1761.62c0-5.01,3.76-8.62,9.04-8.62s9.01,3.59,9.01,8.62-3.75,8.62-9.01,8.62-9.04-3.6-9.04-8.62ZM3941.85,1761.63c0-2.57-1.81-4.41-4.3-4.41s-4.33,1.86-4.33,4.41,1.83,4.41,4.33,4.41,4.3-1.84,4.3-4.41Z"/>
          <path d="M3963.5,1753.42v16.41h-3.74l-6.52-8.9v8.9h-4.38v-16.41h3.96l6.3,8.61v-8.61h4.38Z"/>
          <path d="M3978.99,1757.49h-4.46v12.34h-4.54v-12.34h-4.46v-4.07h13.45v4.07Z"/>
          <path d="M3991.7,1765.91v3.92h-10.7v-16.41h10.5v3.91h-6v2.42h5.39v3.71h-5.39v2.46h6.2Z"/>
        </g>
      </g>
    </g>
    <g id="campinas">
      <circle id="campinas-2" data-name="campinas" cx="3515.04" cy="1928.14" r="30.53" fill="#b560a3"/>
      <g id="campinas-3" data-name="campinas">
        <rect x="3441.01" y="1867.92" width="148.06" height="42.61" fill="#c4cedb"/>
        <g>
          <path d="M3449.43,1890.06c0-4.93,3.73-8.63,8.72-8.63,4.3,0,7.63,2.84,8.3,7h-4.58c-.56-1.68-1.98-2.77-3.71-2.77-2.32,0-4.03,1.87-4.03,4.41s1.7,4.37,4.03,4.37c1.82,0,3.25-1.19,3.71-3.01h4.62c-.62,4.31-3.97,7.24-8.34,7.24-4.99,0-8.72-3.7-8.72-8.6Z"/>
          <path d="M3477.99,1895.58h-5.82l-.91,2.67h-4.84l6.44-16.41h4.42l6.59,16.41h-4.98l-.9-2.67ZM3475.07,1886.96l-1.8,5.08h3.61l-1.81-5.08Z"/>
          <path d="M3501.67,1898.25l-1.28-9.45-4.35,9.48h-1.33l-4.35-9.47-1.26,9.44h-4.58l2.48-16.41h4.51l3.86,8.93,3.89-8.93h4.51l2.46,16.41h-4.56Z"/>
          <path d="M3521.54,1887.77c0,3.44-2.59,5.95-6.08,5.95h-2.46v4.53h-4.53v-16.41h6.99c3.49,0,6.08,2.49,6.08,5.93ZM3516.89,1887.78c0-1.17-.78-1.99-1.97-1.99h-1.91v3.98h1.91c1.19,0,1.97-.83,1.97-1.99Z"/>
          <path d="M3523.59,1881.84h4.58v16.41h-4.58v-16.41Z"/>
          <path d="M3545.99,1881.84v16.41h-3.74l-6.52-8.9v8.9h-4.38v-16.41h3.96l6.3,8.61v-8.61h4.38Z"/>
          <path d="M3559.15,1895.58h-5.82l-.91,2.67h-4.84l6.44-16.41h4.42l6.59,16.41h-4.98l-.9-2.67ZM3556.23,1886.96l-1.8,5.08h3.61l-1.81-5.08Z"/>
          <path d="M3565.13,1892.95h4.66c0,1.17.9,1.74,1.93,1.74.95,0,1.85-.5,1.85-1.4,0-1.03-1.28-1.33-2.84-1.71-2.37-.59-5.4-1.32-5.4-5.05,0-3.23,2.37-5.08,6.24-5.08s6.19,2.02,6.19,5.36h-4.53c0-1.04-.77-1.52-1.71-1.52-.81,0-1.58.35-1.58,1.11,0,.93,1.24,1.24,2.78,1.63,2.42.62,5.57,1.43,5.57,5.18s-2.75,5.44-6.56,5.44c-4.02,0-6.61-2.12-6.61-5.7Z"/>
        </g>
      </g>
    </g>
    <g id="niteroi">
      <circle id="niteroi-2" data-name="niteroi" cx="3916.69" cy="2070.58" r="38.38" fill="#b560a3"/>
      <g id="niteroi-3" data-name="niteroi">
        <rect x="3899.79" y="2004.76" width="111.42" height="42.61" fill="#c4cedb"/>
        <g>
          <path d="M3923.7,2018.69v16.41h-3.74l-6.52-8.9v8.9h-4.38v-16.41h3.96l6.3,8.61v-8.61h4.38Z"/>
          <path d="M3926.88,2018.69h4.58v16.41h-4.58v-16.41Z"/>
          <path d="M3946.95,2022.76h-4.46v12.34h-4.54v-12.34h-4.46v-4.07h13.45v4.07Z"/>
          <path d="M3959.66,2031.17v3.92h-10.7v-16.41h10.5v3.91h-6v2.42h5.39v3.71h-5.39v2.46h6.2Z"/>
          <path d="M3968.42,2030.07h-1.64v5.02h-4.52v-16.41h7.11c3.54,0,6.1,2.38,6.1,5.81,0,2.01-.98,3.66-2.6,4.63l3.26,5.97h-5.04l-2.66-5.02ZM3966.78,2026.27h2.06c1.26,0,1.99-.76,1.99-1.79s-.73-1.78-1.99-1.78h-2.06v3.56Z"/>
          <path d="M3977.11,2026.89c0-5.01,3.76-8.62,9.04-8.62s9.01,3.59,9.01,8.62-3.75,8.62-9.01,8.62-9.04-3.6-9.04-8.62ZM3990.45,2026.89c0-2.57-1.81-4.41-4.3-4.41s-4.33,1.86-4.33,4.41,1.83,4.41,4.33,4.41,4.3-1.84,4.3-4.41ZM3986.05,2013.61h4.55l-3.01,3.64h-3.2l1.66-3.64Z"/>
          <path d="M3997.47,2018.69h4.58v16.41h-4.58v-16.41Z"/>
        </g>
      </g>
    </g>
    <g id="saocarlos">
      <circle id="saocarlos-2" data-name="saocarlos" cx="3305.93" cy="1897.56" r="27.79" fill="#b560a3"/>
      <g id="saocarlos-3" data-name="saocarlos">
        <rect x="3118.5" y="1876.25" width="170.15" height="42.61" fill="#c4cedb"/>
        <g>
          <path d="M3126.98,1901.29h4.66c0,1.17.9,1.74,1.93,1.74.95,0,1.85-.5,1.85-1.4,0-1.03-1.28-1.33-2.84-1.71-2.37-.59-5.4-1.32-5.4-5.05,0-3.23,2.37-5.08,6.24-5.08s6.19,2.02,6.19,5.36h-4.53c0-1.04-.77-1.52-1.71-1.52-.81,0-1.58.35-1.58,1.11,0,.93,1.24,1.24,2.78,1.63,2.42.62,5.57,1.43,5.57,5.18s-2.75,5.44-6.56,5.44c-4.02,0-6.61-2.12-6.61-5.7Z"/>
          <path d="M3151.89,1903.92h-5.82l-.91,2.67h-4.84l6.44-16.41h4.42l6.59,16.41h-4.98l-.9-2.67ZM3148.4,1888.08c-.4-.22-.73-.4-1.02-.41-.44-.02-.77.35-.77.84v.22h-2.37v-.28c0-2.08,1.07-3.44,3.02-3.44.95,0,1.62.39,2.18.74.38.25.73.46,1.08.46.47,0,.76-.33.76-.87v-.27h2.38v.31c0,2.14-1.13,3.44-2.99,3.44-.96,0-1.67-.42-2.27-.75ZM3148.97,1895.3l-1.8,5.08h3.61l-1.81-5.08Z"/>
          <path d="M3157.72,1898.38c0-5.01,3.76-8.62,9.04-8.62s9.01,3.59,9.01,8.62-3.75,8.62-9.01,8.62-9.04-3.6-9.04-8.62ZM3171.06,1898.38c0-2.57-1.81-4.41-4.3-4.41s-4.33,1.86-4.33,4.41,1.83,4.41,4.33,4.41,4.3-1.84,4.3-4.41Z"/>
          <path d="M3182.32,1898.39c0-4.93,3.73-8.63,8.72-8.63,4.3,0,7.63,2.84,8.3,7h-4.58c-.56-1.68-1.98-2.77-3.71-2.77-2.32,0-4.03,1.87-4.03,4.41s1.7,4.37,4.03,4.37c1.82,0,3.25-1.19,3.71-3.01h4.62c-.62,4.31-3.97,7.24-8.34,7.24-4.99,0-8.72-3.7-8.72-8.6Z"/>
          <path d="M3210.87,1903.92h-5.82l-.91,2.67h-4.84l6.44-16.41h4.42l6.59,16.41h-4.98l-.9-2.67ZM3207.95,1895.3l-1.8,5.08h3.61l-1.81-5.08Z"/>
          <path d="M3224.5,1901.56h-1.64v5.02h-4.52v-16.41h7.11c3.54,0,6.1,2.38,6.1,5.81,0,2.01-.98,3.66-2.6,4.63l3.26,5.97h-5.04l-2.66-5.02ZM3222.86,1897.76h2.06c1.26,0,1.99-.76,1.99-1.79s-.73-1.78-1.99-1.78h-2.06v3.56Z"/>
          <path d="M3244.6,1902.44v4.14h-10.42v-16.41h4.58v12.27h5.84Z"/>
          <path d="M3245.31,1898.38c0-5.01,3.76-8.62,9.04-8.62s9.01,3.59,9.01,8.62-3.75,8.62-9.01,8.62-9.04-3.6-9.04-8.62ZM3258.65,1898.38c0-2.57-1.81-4.41-4.3-4.41s-4.33,1.86-4.33,4.41,1.83,4.41,4.33,4.41,4.3-1.84,4.3-4.41Z"/>
          <path d="M3264.87,1901.29h4.66c0,1.17.9,1.74,1.93,1.74.95,0,1.85-.5,1.85-1.4,0-1.03-1.28-1.33-2.84-1.71-2.37-.59-5.4-1.32-5.4-5.05,0-3.23,2.37-5.08,6.24-5.08s6.19,2.02,6.19,5.36h-4.53c0-1.04-.77-1.52-1.71-1.52-.81,0-1.58.35-1.58,1.11,0,.93,1.24,1.24,2.78,1.63,2.42.62,5.57,1.43,5.57,5.18s-2.75,5.44-6.56,5.44c-4.02,0-6.61-2.12-6.61-5.7Z"/>
        </g>
      </g>
    </g>
  </g>
  <g id="CENTRO_OESTE-2" data-name="CENTRO OESTE">
    <g id="goiania">
      <rect x="3385.36" y="1495.25" width="119.38" height="42.61" fill="#c4cedb"/>
      <g>
        <path d="M3410.22,1515.77c0,5.37-3.5,9.18-8.64,9.18s-8.74-3.61-8.74-8.6,3.65-8.63,8.7-8.63c4.3,0,7.82,2.69,8.51,6.5h-4.74c-.59-1.38-2.06-2.27-3.74-2.27-2.46,0-4.11,1.78-4.11,4.4s1.63,4.37,4.11,4.37c1.73,0,3.2-.83,3.72-2.1h-4.07v-2.85h9Z"/>
        <path d="M3411.65,1516.33c0-5.01,3.76-8.62,9.04-8.62s9.01,3.59,9.01,8.62-3.75,8.62-9.01,8.62-9.04-3.6-9.04-8.62ZM3424.99,1516.33c0-2.57-1.81-4.41-4.3-4.41s-4.33,1.86-4.33,4.41,1.83,4.41,4.33,4.41,4.3-1.84,4.3-4.41Z"/>
        <path d="M3432.01,1508.13h4.58v16.41h-4.58v-16.41Z"/>
        <path d="M3449.74,1521.87h-5.82l-.91,2.67h-4.84l6.44-16.41h4.42l6.59,16.41h-4.98l-.9-2.67ZM3445.14,1506.68h-3.4l2.78-3.64h4.58l2.79,3.64h-3.39l-1.69-1.67-1.67,1.67ZM3446.83,1513.25l-1.8,5.08h3.61l-1.81-5.08Z"/>
        <path d="M3471.84,1508.13v16.41h-3.74l-6.52-8.9v8.9h-4.38v-16.41h3.96l6.3,8.61v-8.61h4.38Z"/>
        <path d="M3475.03,1508.13h4.58v16.41h-4.58v-16.41Z"/>
        <path d="M3492.76,1521.87h-5.82l-.91,2.67h-4.84l6.44-16.41h4.42l6.59,16.41h-4.98l-.9-2.67ZM3489.85,1513.25l-1.8,5.08h3.61l-1.81-5.08Z"/>
      </g>
      <circle id="goiania-2" data-name="goiania" cx="3438.14" cy="1564.42" r="34.12" fill="#1da1c6"/>
    </g>
    <g id="cuiaba">
      <rect x="2946.47" y="1422.33" width="105.55" height="42.61" fill="#c4cedb"/>
      <g>
        <path d="M2953.94,1443.43c0-4.93,3.73-8.63,8.72-8.63,4.3,0,7.63,2.84,8.3,7h-4.58c-.56-1.68-1.98-2.77-3.71-2.77-2.32,0-4.03,1.87-4.03,4.41s1.7,4.37,4.03,4.37c1.82,0,3.25-1.19,3.71-3.01h4.62c-.62,4.31-3.97,7.24-8.34,7.24-4.99,0-8.72-3.7-8.72-8.6Z"/>
        <path d="M2973,1445.28v-10.06h4.62v9.98c0,1.6,1.03,2.64,2.54,2.64s2.54-1.04,2.54-2.64v-9.98h4.62v10.06c0,4.04-2.98,6.76-7.16,6.76s-7.16-2.73-7.16-6.76Z"/>
        <path d="M2990.33,1435.22h4.58v16.41h-4.58v-16.41Z"/>
        <path d="M3008.07,1448.96h-5.82l-.91,2.67h-4.84l6.44-16.41h4.42l6.59,16.41h-4.98l-.9-2.67ZM3005.15,1440.34l-1.8,5.08h3.61l-1.81-5.08Z"/>
        <path d="M3028.42,1446.95c0,2.66-2.29,4.67-5.32,4.67h-7.56v-16.41h7.41c2.91,0,5.03,1.78,5.03,4.2,0,1.47-.82,2.79-2.07,3.54,1.55.73,2.52,2.2,2.52,3.99ZM3023.95,1446.41c0-.87-.64-1.49-1.62-1.49h-2.46v2.98h2.46c.98,0,1.62-.61,1.62-1.5ZM3023.69,1440.16c0-.85-.58-1.43-1.53-1.43h-2.28v2.86h2.28c.95,0,1.53-.58,1.53-1.43h0Z"/>
        <path d="M3040.3,1448.96h-5.82l-.91,2.67h-4.84l6.44-16.41h4.42l6.59,16.41h-4.98l-.9-2.67ZM3037.39,1440.34l-1.8,5.08h3.61l-1.81-5.08ZM3038.81,1433.77h-3.2l1.66-3.64h4.55l-3.01,3.64Z"/>
      </g>
      <circle id="cuiaba-2" data-name="cuiaba" cx="2974.16" cy="1488.87" r="27.68" fill="#1da1c6"/>
    </g>
  </g>
  <g id="NORDESTE-2" data-name="NORDESTE">
    <g id="maceio">
      <rect x="4326.08" y="1115.57" width="111.53" height="42.61" fill="#c4cedb"/>
      <g>
        <path d="M4350.62,1144.86l-1.28-9.45-4.35,9.48h-1.33l-4.35-9.47-1.26,9.44h-4.58l2.48-16.41h4.51l3.86,8.93,3.89-8.93h4.51l2.46,16.41h-4.56Z"/>
        <path d="M4367.4,1142.19h-5.82l-.91,2.66h-4.84l6.44-16.41h4.42l6.59,16.41h-4.98l-.9-2.66ZM4364.48,1133.57l-1.8,5.08h3.61l-1.81-5.08Z"/>
        <path d="M4373.24,1136.67c0-4.93,3.73-8.63,8.72-8.63,4.3,0,7.63,2.84,8.3,7h-4.58c-.56-1.68-1.98-2.77-3.71-2.77-2.32,0-4.03,1.87-4.03,4.41s1.7,4.37,4.03,4.37c1.82,0,3.25-1.19,3.71-3.01h4.62c-.62,4.31-3.97,7.24-8.34,7.24-4.99,0-8.72-3.7-8.72-8.6Z"/>
        <path d="M4403.17,1140.93v3.92h-10.7v-16.41h10.5v3.91h-6v2.42h5.39v3.71h-5.39v2.46h6.2Z"/>
        <path d="M4405.76,1128.45h4.58v16.41h-4.58v-16.41Z"/>
        <path d="M4412.66,1136.65c0-5.01,3.76-8.62,9.04-8.62s9.01,3.59,9.01,8.62-3.75,8.62-9.01,8.62-9.04-3.6-9.04-8.62ZM4421.7,1141.06c2.5,0,4.3-1.84,4.3-4.41s-1.81-4.41-4.3-4.41-4.33,1.86-4.33,4.41,1.83,4.41,4.33,4.41h0ZM4421.6,1123.37h4.55l-3.01,3.64h-3.2l1.66-3.64Z"/>
      </g>
      <circle id="maceio-2" data-name="maceio" cx="4385.77" cy="1094.39" r="27.38" fill="#e9bf65"/>
    </g>
    <g id="arapiraca">
      <rect x="4020.18" y="1025.05" width="155.34" height="42.61" fill="#c4cedb"/>
      <g>
        <path d="M4038.48,1051.67h-5.82l-.91,2.66h-4.84l6.44-16.41h4.42l6.59,16.41h-4.98l-.9-2.66ZM4035.56,1043.05l-1.8,5.08h3.61l-1.81-5.08Z"/>
        <path d="M4052.1,1049.32h-1.64v5.02h-4.52v-16.41h7.11c3.54,0,6.1,2.38,6.1,5.81,0,2.01-.98,3.66-2.6,4.63l3.26,5.97h-5.04l-2.66-5.02ZM4050.46,1045.51h2.06c1.26,0,1.99-.76,1.99-1.79s-.73-1.78-1.99-1.78h-2.06v3.56Z"/>
        <path d="M4071.69,1051.67h-5.82l-.91,2.66h-4.84l6.44-16.41h4.42l6.59,16.41h-4.98l-.9-2.66ZM4068.78,1043.05l-1.8,5.08h3.61l-1.81-5.08Z"/>
        <path d="M4092.22,1043.86c0,3.44-2.59,5.95-6.08,5.95h-2.46v4.53h-4.53v-16.41h6.99c3.49,0,6.08,2.49,6.08,5.93ZM4087.58,1043.87c0-1.17-.78-1.99-1.97-1.99h-1.91v3.98h1.91c1.19,0,1.97-.82,1.97-1.99Z"/>
        <path d="M4094.28,1037.93h4.58v16.41h-4.58v-16.41Z"/>
        <path d="M4108.2,1049.32h-1.64v5.02h-4.52v-16.41h7.11c3.54,0,6.1,2.38,6.1,5.81,0,2.01-.98,3.66-2.6,4.63l3.26,5.97h-5.04l-2.66-5.02ZM4106.56,1045.51h2.06c1.26,0,1.99-.76,1.99-1.79s-.73-1.78-1.99-1.78h-2.06v3.56Z"/>
        <path d="M4127.79,1051.67h-5.82l-.91,2.66h-4.84l6.44-16.41h4.42l6.59,16.41h-4.98l-.9-2.66ZM4124.88,1043.05l-1.8,5.08h3.61l-1.81-5.08Z"/>
        <path d="M4133.63,1046.15c0-4.93,3.73-8.63,8.72-8.63,4.3,0,7.63,2.84,8.3,7h-4.58c-.56-1.68-1.98-2.77-3.71-2.77-2.32,0-4.03,1.87-4.03,4.41s1.7,4.37,4.03,4.37c1.82,0,3.25-1.19,3.71-3.01h4.62c-.62,4.31-3.97,7.24-8.34,7.24-4.99,0-8.72-3.7-8.72-8.6Z"/>
        <path d="M4162.19,1051.67h-5.82l-.91,2.66h-4.84l6.44-16.41h4.42l6.59,16.41h-4.98l-.9-2.66ZM4159.27,1043.05l-1.8,5.08h3.61l-1.81-5.08Z"/>
      </g>
      <circle id="arapiraca-2" data-name="arapiraca" cx="4170.36" cy="1081.61" r="27.38" fill="#e9bf65"/>
    </g>
    <g id="natal">
      <circle id="natal-2" data-name="natal" cx="4437.61" cy="824.26" r="27.38" fill="#e9bf65"/>
      <g id="natal-3" data-name="natal">
        <rect x="4324.02" y="812.51" width="90.25" height="42.61" fill="#c4cedb"/>
        <g>
          <path d="M4346.97,825.4v16.41h-3.74l-6.52-8.9v8.9h-4.38v-16.41h3.96l6.3,8.61v-8.61h4.38Z"/>
          <path d="M4360.13,839.14h-5.82l-.91,2.66h-4.84l6.44-16.41h4.42l6.59,16.41h-4.98l-.9-2.66ZM4357.21,830.52l-1.8,5.08h3.61l-1.81-5.08Z"/>
          <path d="M4378.23,829.46h-4.46v12.34h-4.54v-12.34h-4.46v-4.07h13.45v4.07Z"/>
          <path d="M4388.56,839.14h-5.82l-.91,2.66h-4.84l6.44-16.41h4.42l6.59,16.41h-4.98l-.9-2.66ZM4385.65,830.52l-1.8,5.08h3.61l-1.81-5.08Z"/>
          <path d="M4406.45,837.66v4.14h-10.42v-16.41h4.58v12.27h5.84Z"/>
        </g>
      </g>
    </g>
    <g id="recife">
      <circle id="recife-2" data-name="recife" cx="4447.21" cy="984.41" r="27.38" fill="#e9bf65"/>
      <g id="recife-3" data-name="recife">
        <rect x="4399.86" y="1001.47" width="94.7" height="42.61" fill="#c4cedb"/>
        <g>
          <path d="M4414.34,1025.74h-1.64v5.02h-4.52v-16.41h7.11c3.54,0,6.1,2.38,6.1,5.81,0,2.01-.98,3.66-2.6,4.63l3.26,5.97h-5.04l-2.66-5.02ZM4412.7,1021.93h2.06c1.26,0,1.99-.76,1.99-1.79s-.73-1.78-1.99-1.78h-2.06v3.56Z"/>
          <path d="M4434.72,1026.84v3.92h-10.7v-16.41h10.5v3.91h-6v2.42h5.39v3.71h-5.39v2.46h6.2Z"/>
          <path d="M4436.23,1022.57c0-4.93,3.73-8.63,8.72-8.63,4.3,0,7.63,2.84,8.3,7h-4.58c-.56-1.68-1.98-2.77-3.71-2.77-2.32,0-4.03,1.87-4.03,4.41s1.7,4.37,4.03,4.37c1.82,0,3.25-1.19,3.71-3.01h4.62c-.62,4.31-3.97,7.24-8.34,7.24-4.99,0-8.72-3.7-8.72-8.6Z"/>
          <path d="M4455.46,1014.35h4.58v16.41h-4.58v-16.41Z"/>
          <path d="M4467.78,1018.44v2.61h5.27v3.96h-5.27v5.75h-4.56v-16.41h10.44v4.09h-5.88Z"/>
          <path d="M4486.77,1026.84v3.92h-10.7v-16.41h10.5v3.91h-6v2.42h5.39v3.71h-5.39v2.46h6.2Z"/>
        </g>
      </g>
    </g>
    <g id="salvador">
      <circle id="maceio-3" data-name="maceio" cx="4192.13" cy="1317.53" r="27.38" fill="#e9bf65"/>
      <g id="maceio-4" data-name="maceio">
        <rect x="4126.98" y="1338.7" width="148.55" height="42.61" fill="#c4cedb"/>
        <g>
          <path d="M4139.96,1362.69h4.66c0,1.17.9,1.74,1.93,1.74.95,0,1.85-.5,1.85-1.4,0-1.03-1.28-1.33-2.84-1.71-2.37-.59-5.4-1.32-5.4-5.05,0-3.23,2.37-5.08,6.24-5.08s6.19,2.02,6.19,5.36h-4.53c0-1.04-.77-1.52-1.71-1.52-.81,0-1.58.35-1.58,1.11,0,.93,1.24,1.24,2.78,1.63,2.42.62,5.57,1.43,5.57,5.18s-2.75,5.44-6.56,5.44c-4.02,0-6.61-2.12-6.61-5.7Z"/>
          <path d="M4164.87,1365.33h-5.82l-.91,2.67h-4.84l6.44-16.41h4.42l6.59,16.41h-4.98l-.9-2.67ZM4161.95,1356.71l-1.8,5.08h3.61l-1.81-5.08Z"/>
          <path d="M4182.75,1363.85v4.14h-10.42v-16.41h4.58v12.27h5.84Z"/>
          <path d="M4198.22,1351.59l-6.28,16.41h-4.21l-6.42-16.41h5.16l3.35,10.2,3.27-10.2h5.13Z"/>
          <path d="M4208,1365.33h-5.82l-.91,2.67h-4.84l6.44-16.41h4.42l6.59,16.41h-4.98l-.9-2.67ZM4205.08,1356.71l-1.8,5.08h3.61l-1.81-5.08Z"/>
          <path d="M4230.58,1359.77c0,4.79-3.52,8.22-8.47,8.22h-6.64v-16.41h6.64c4.97,0,8.47,3.4,8.47,8.19ZM4225.94,1359.77c0-2.43-1.62-4.05-4.05-4.05h-1.89v8.13h1.89c2.43,0,4.05-1.66,4.05-4.08Z"/>
          <path d="M4232.07,1359.79c0-5.01,3.76-8.62,9.04-8.62s9.01,3.59,9.01,8.62-3.75,8.62-9.01,8.62-9.04-3.6-9.04-8.62ZM4245.42,1359.79c0-2.57-1.81-4.41-4.3-4.41s-4.33,1.86-4.33,4.41,1.83,4.41,4.33,4.41,4.3-1.84,4.3-4.41Z"/>
          <path d="M4258.59,1362.97h-1.64v5.02h-4.52v-16.41h7.11c3.54,0,6.1,2.38,6.1,5.81,0,2.01-.98,3.66-2.6,4.63l3.26,5.97h-5.04l-2.66-5.02ZM4256.96,1359.16h2.06c1.26,0,1.99-.76,1.99-1.79s-.73-1.78-1.99-1.78h-2.06v3.56Z"/>
        </g>
      </g>
    </g>
    <g id="fortaleza">
      <circle id="natal-4" data-name="natal" cx="4209.41" cy="663.37" r="27.38" fill="#e9bf65"/>
      <g id="natal-5" data-name="natal">
        <rect x="4063.64" y="669.45" width="150.58" height="42.61" fill="#c4cedb"/>
        <g>
          <path d="M4076.51,686.42v2.61h5.27v3.96h-5.27v5.75h-4.56v-16.41h10.44v4.09h-5.88Z"/>
          <path d="M4083.78,690.53c0-5.01,3.76-8.62,9.04-8.62s9.01,3.59,9.01,8.62-3.75,8.62-9.01,8.62-9.04-3.6-9.04-8.62ZM4092.82,694.94c2.5,0,4.3-1.84,4.3-4.41s-1.81-4.41-4.3-4.41-4.33,1.86-4.33,4.41,1.83,4.41,4.33,4.41h0Z"/>
          <path d="M4110.3,693.71h-1.64v5.02h-4.52v-16.41h7.11c3.54,0,6.1,2.38,6.1,5.81,0,2.01-.98,3.66-2.6,4.63l3.26,5.97h-5.04l-2.66-5.02ZM4108.66,689.91h2.06c1.26,0,1.99-.76,1.99-1.79s-.73-1.78-1.99-1.78h-2.06v3.56Z"/>
          <path d="M4131.94,686.4h-4.46v12.34h-4.54v-12.34h-4.46v-4.07h13.45v4.07Z"/>
          <path d="M4142.27,696.07h-5.82l-.91,2.66h-4.84l6.44-16.41h4.42l6.59,16.41h-4.98l-.9-2.66ZM4139.36,687.45l-1.8,5.08h3.61l-1.81-5.08Z"/>
          <path d="M4160.16,694.6v4.14h-10.42v-16.41h4.58v12.27h5.84Z"/>
          <path d="M4172.88,694.81v3.92h-10.7v-16.41h10.5v3.91h-6v2.42h5.39v3.71h-5.39v2.46h6.2Z"/>
          <path d="M4187.42,694.53v4.21h-12.99v-.94l6.08-11.26h-5.68v-4.21h12.31v1.02l-6.05,11.18h6.33Z"/>
          <path d="M4199.59,696.07h-5.82l-.91,2.66h-4.84l6.44-16.41h4.42l6.59,16.41h-4.98l-.9-2.66ZM4196.68,687.45l-1.8,5.08h3.61l-1.81-5.08Z"/>
        </g>
      </g>
    </g>
  </g>
</svg>