<?xml version='1.0' encoding='utf-8'?>
<svg xmlns="http://www.w3.org/2000/svg" viewBox="0 0 897.7 1021.9">
  <defs>
    <style>
      .cls-1 {
        fill: #b560a3;
      }

      .cls-2 {
        letter-spacing: 0em;
      }

      .cls-3 {
        letter-spacing: 0em;
      }

      .cls-4 {
        letter-spacing: 0em;
      }

      .cls-5 {
        letter-spacing: -.07em;
      }

      .cls-6 {
        letter-spacing: 0em;
      }

      .cls-7 {
        font-family: Mont-Heavy, Mont;
        font-size: 11.82px;
        font-weight: 800;
      }

      .cls-8 {
        fill: #e9bf65;
      }

      .cls-9 {
        letter-spacing: -.03em;
      }

      .cls-10 {
        letter-spacing: -.02em;
      }

      .cls-11 {
        letter-spacing: -.03em;
      }

      .cls-12 {
        fill: #1da1c6;
      }

      .cls-13 {
        letter-spacing: -.03em;
      }

      .cls-14 {
        letter-spacing: -.08em;
      }

      .cls-15 {
        stroke-width: 5px;
      }

      .cls-15, .cls-16, .cls-17, .cls-18, .cls-19, .cls-20, .cls-21 {
        fill: none;
        stroke: #898989;
        stroke-miterlimit: 10;
      }

      .cls-22 {
        letter-spacing: -.03em;
      }

      .cls-23 {
        letter-spacing: -.01em;
      }

      .cls-24 {
        letter-spacing: -.03em;
      }

      .cls-25 {
        letter-spacing: -.03em;
      }

      .cls-26 {
        letter-spacing: -.03em;
      }

      .cls-16 {
        stroke-width: 14px;
      }

      .cls-27 {
        letter-spacing: 0em;
      }

      .cls-28 {
        fill: #c4cedb;
      }

      .cls-29 {
        letter-spacing: -.02em;
      }

      .cls-17 {
        stroke-width: 7px;
      }

      .cls-30 {
        letter-spacing: 0em;
      }

      .cls-31 {
        letter-spacing: -.02em;
      }

      .cls-32 {
        letter-spacing: -.06em;
      }

      .cls-33 {
        letter-spacing: -.03em;
      }

      .cls-34 {
        letter-spacing: 0em;
      }

      .cls-35 {
        letter-spacing: -.09em;
      }

      .cls-19 {
        stroke-width: 3px;
      }

      .cls-36 {
        fill: #2cb86a;
      }

      .cls-37 {
        letter-spacing: -.02em;
      }

      .cls-38 {
        letter-spacing: -.03em;
      }

      .cls-39 {
        letter-spacing: -.06em;
      }

      .cls-20 {
        stroke-width: 4px;
      }

      .cls-40 {
        letter-spacing: -.07em;
      }

      .cls-41 {
        letter-spacing: -.03em;
      }

      .cls-21 {
        stroke-width: 2px;
      }

      .cls-42 {
        letter-spacing: -.02em;
      }
    </style>
  </defs>
  <g id="LINHAS">
    <g id="CENTRO_OESTE" data-name="CENTRO OESTE">
      <g id="Layer_3" data-name="Layer 3">
        <path class="cls-18" d="M41.38,457.15c37.08,156.98,127.32,245.98,254.64,274.41" />
        <path class="cls-18" d="M313.32,667.29c-22.25-105.07-127.32-202.72-271.94-210.14" />
      </g>
      <g id="Layer_4" data-name="Layer 4">
        <path class="cls-19" d="M299.72,497.33c-103.83,136.28-31.52,424.6,30.59,446.85" />
        <path class="cls-15" d="M513.88,786.57c-15.76-148.33-110.32-266.07-214.15-289.25" />
        <path class="cls-18" d="M330.32,581.69c0-45.87-16.69-67.68-24.9-82.99" />
        <path class="cls-18" d="M410.97,796.77c35.23-112.18-51.92-270.7-105.56-298.07" />
        <path class="cls-19" d="M288.18,490.11c-39.14-3.91-21.16,27.78,3.15,19.13" />
        <path class="cls-18" d="M760.79,229.71c-29.67,129.17-306.55,310.48-457.97,267.61" />
        <path class="cls-18" d="M495.02,606.1c-36.46-48.21-97.65-107.4-195.3-108.78" />
        <path class="cls-18" d="M299.72,497.33c45.74-223.73,333.75-426.45,528.43-417.18" />
      </g>
    </g>
    <g id="NORDESTE">
      <path class="cls-18" d="M289.21,724.46c-4.94-243.2,291.1-614.03,542.65-644.62" />
      <path class="cls-18" d="M406.8,804.19c-94.1-301.3,209.98-675.84,425.06-724.35" />
      <path class="cls-18" d="M383.16,671.61c56.55-237.33,263.29-467.24,462.61-508.04" />
      <path class="cls-18" d="M495.02,606.1c-17.31-200.4,204.26-415.64,350.74-442.52" />
      <path class="cls-18" d="M495.02,606.1c-7.11-155.13,172.74-356.3,333.13-380.41" />
      <path class="cls-18" d="M378.52,667.29c63.04-167.03,292.95-430.47,449.63-441.6" />
      <path class="cls-18" d="M831.86,84.78c34.3,241.97-145.55,526.58-275.34,562.96" />
      <path class="cls-18" d="M845.77,163.58c9.27,260.51-184.28,450.56-289.25,484.16" />
      <path class="cls-18" d="M845.77,163.58c-8.19-39.4-7.33-78.8-16.38-78.8" />
      <path class="cls-18" d="M760.79,229.71c0-4.44,43.88-12.98,59.95-8.03" />
      <path class="cls-18" d="M849.17,159.25c10.44-20.4,53.77,28.43-3.4,15.45" />
      <path class="cls-18" d="M845.77,163.58c38.22,291.92-323.96,734.03-510.2,776.93" />
      <path class="cls-19" d="M845.77,163.58c38.94,293.88-175.85,553.46-331.89,617.43" />
      <path class="cls-18" d="M760.79,229.71c40.48,186.96-112.48,437.58-219.1,481.77" />
      <path class="cls-18" d="M760.79,229.71c57.17,243.51-146.32,517.92-252.47,551.3" />
      <path class="cls-18" d="M759.55,234.04c38.01,223.12-144.47,501.55-247.37,548.83" />
      <path class="cls-18" d="M759.55,234.04c72.31,203.96-60.26,470.03-162.24,522.87" />
    </g>
    <g id="SUL">
      <path class="cls-18" d="M240.8,761.64c-16.48,84.05,28.84,168.11,87.35,182.53" />
      <path class="cls-18" d="M313.32,667.29c-67.68,63.97-21.84,256.28,17,276.89" />
      <path class="cls-18" d="M330.32,942.11c-9.08,0-14.94-84.05-14.52-86.11" />
      <path class="cls-18" d="M328.15,947.06c0-122.07,61.39-197.36,132.67-223.73" />
      <path class="cls-21" d="M328.15,940.51c0-79.45,42.03-133.54,86.53-143.74" />
      <path class="cls-19" d="M330.32,942.11c20.09-79.73,96.31-148.74,181.19-159.46" />
      <path class="cls-18" d="M406.85,792.96c-12.36,61.39-45.74,120.31-76.12,147.55" />
      <path class="cls-21" d="M337.22,931.4c51.5-18.54,37.49,54.39-.09,19.78" />
      <path class="cls-18" d="M323.04,849.3c17.31-2.47,15.71,15.39,0,17.43" />
      <path class="cls-18" d="M311.46,856c73.86-42.54,64.74-31.42,133.81-10.71" />
      <path class="cls-18" d="M326.16,936.18c-7-147.13,31.65-240.04,55.55-268.89" />
      <path class="cls-18" d="M299.1,795.53c3.59,25.96,10.03,42.95,20.06,56.05" />
    </g>
    <g id="SUDESTE">
      <path class="cls-18" d="M286.12,799.24c-8.96-15.76-22.25-35.23-46.35-40.48" />
      <path class="cls-18" d="M409.12,790.59c0-18.45-103.83-63.66-169.35-33.37" />
      <path class="cls-18" d="M308.37,668.22c.66,66.05,18.85,107.23,36.46,113.41" />
      <path class="cls-21" d="M314.25,668.22c12.36,98.58,66.13,160.38,137.52,179.23" />
      <path class="cls-20" d="M318.88,672.23c18.54,57.17,95.61,109.39,186.65,109.39" />
      <path class="cls-18" d="M316.1,665.43c20.09,39.48,115.57,97.65,187.89,104.76" />
      <path class="cls-18" d="M320.74,669.76c27.19-26.89,108.47-69.84,173.05-71.08" />
      <path class="cls-21" d="M331.55,585.71c-1.69,40.48,0,50.37-12.67,80.96" />
      <path class="cls-18" d="M242.55,753.82c27.5-41.41,38.16-81.58,76.33-87.14" />
      <path class="cls-18" d="M291.07,736.2c-15.05,16.17-22.25,22.56-49.75,22.56" />
      <path class="cls-18" d="M396.45,590.03c-19.16,57.7-96.11,98.58-105.38,140.39" />
      <path class="cls-19" d="M291.07,730.42c0-32.16,9.26-58.19,20.7-58.19" />
      <path class="cls-18" d="M326.61,587.87c11.74,97.96,120.52,217.86,267,180.95" />
      <path class="cls-18" d="M330.73,587.87c5.76,4.52,30.79,15.14,62.93,5.25" />
      <path class="cls-18" d="M333.1,576.74c18.95-21.32,27.19,21.94,5.25,15.79" />
      <path class="cls-18" d="M392.01,734.25c-10.71-33.9-35.94-55.69-77.77-66.03" />
      <path class="cls-18" d="M376.67,669.76s-23.15,14.4-60.57,0" />
      <path class="cls-18" d="M383.16,671.61c-11.74,86.22-78.64,144.01-137.21,166.25" />
      <path class="cls-21" d="M286.12,790.59c0-34.56,51.63-56.34,105.89-56.34" />
      <path class="cls-18" d="M353.13,784.1c15.66-21.68,75.76-111.14,47.95-192.83" />
      <path class="cls-18" d="M293.54,792.96c47.9-83.64,135.25-50.24,199.01-184.69" />
      <path class="cls-21" d="M493.79,610.12c-9.58,60.57-58.28,113.21-101.77,128.55" />
      <path class="cls-21" d="M413.27,790.54c0-27.33-4.42-49.44-9.89-49.44" />
      <path class="cls-18" d="M460.11,843.43c-17.92-53.15-31.83-94.49-63.66-109.18" />
      <path class="cls-18" d="M396.45,736.2c42.95,10.84,68.6,50.37,109.09,39.46" />
      <path class="cls-18" d="M415.61,799.24c0,24.43,15.83,44.19,35.38,44.19" />
      <path class="cls-18" d="M508,799.24c-12.98,27.39-25.65,36.16-47.9,48.21" />
      <path class="cls-18" d="M499.66,803.26c8.34,6.8-37.08,5.87-86.39,2.47" />
      <path class="cls-18" d="M498.42,792.96c-.62,10.3-39.53,10.3-88.38,10.3" />
      <path class="cls-18" d="M598.86,762.42c-15.45,42.51-72.31,81.01-135.66,85.03" />
      <path class="cls-18" d="M463.2,856c14.22-2.99,11.74-13.8.31-18.44" />
      <path class="cls-18" d="M448.35,843.3c-10.46-36.07-17.6-85.46,14.85-122.55" />
      <path class="cls-18" d="M466.9,730.42c-9.58,29.26-31.13,48.58-47.78,62.53" />
      <path class="cls-18" d="M541.69,717.81c-14.52,39.06-73.6,57.84-129.48,74.81" />
      <path class="cls-18" d="M398.92,790.28c-10.71-1.03-18.19,13.6-2.16,13.6" />
      <path class="cls-18" d="M460.11,731.57c7.99,18.85,22.51,41.97,50.33,41.97" />
      <path class="cls-18" d="M470.3,741.09c5.88,11.46,22.25,17.67,35.23,27.72" />
      <path class="cls-19" d="M394.49,726.93c0-6.66,27.94-12.05,62.48-12.05" />
      <path class="cls-18" d="M470.3,714.88c4.33-7.73,32.9,5.87,73.55,5.87" />
      <path class="cls-18" d="M498.42,606.1c5.56,63.66-16.07,102.29-30.33,111.71" />
      <path class="cls-18" d="M596.38,757.83c-12.05-47.9-25.49-81.67-50.99-110.1" />
      <path class="cls-21" d="M600.71,759.07c3.4-52.23-65.2-155.13-99.2-151.11" />
      <path class="cls-21" d="M497.81,592.2c31.21-33.99,39.86,14.22,9.27,16.07" />
      <path class="cls-17" d="M520.37,774.73c25.64-87.98-10.65-168.63-23.8-168.63" />
      <path class="cls-16" d="M510.48,799.24c-4.94,86.22,117.43,23.18,16.69-14.22" />
      <path class="cls-15" d="M468.09,726.93c0,19.62,56.14,35.49,125.51,35.49" />
      <path class="cls-15" d="M524.07,770.19c0-8.28,29.58-14.98,66.13-14.98" />
      <path class="cls-20" d="M606.27,748.25c37.7-19.78,39.56,45.43,0,19.47" />
    </g>
  </g>
  <g id="SUL-2" data-name="SUL">
    <circle id="FLORIPA" class="cls-36" cx="326.5" cy="941.7" r="16.48" />
    <g id="FLORIANOPOLIS">
      <rect class="cls-28" x="287.25" y="952" width="103.65" height="21.48" />
      <text class="cls-7" transform="translate(290.82 967.09)"><tspan x="0" y="0">F</tspan><tspan class="cls-42" x="6.48" y="0">L</tspan><tspan x="12.52" y="0">ORIANÓPOLIS</tspan></text>
    </g>
    <circle id="SANTA_MARIA" data-name="SANTA MARIA" class="cls-36" cx="204.13" cy="953.24" r="14.42" />
    <g id="SANTA_MARIA-2" data-name="SANTA MARIA">
      <rect class="cls-28" x="148.29" y="920.82" width="98.08" height="21.48" />
      <text class="cls-7" transform="translate(156.14 935.69)"><tspan class="cls-26" x="0" y="0">S</tspan><tspan x="7.13" y="0">AN</tspan><tspan class="cls-40" x="24.9" y="0">T</tspan><tspan class="cls-9" x="31.29" y="0">A</tspan><tspan x="39.78" y="0" xml:space="preserve"> MARI</tspan><tspan class="cls-9" x="74.65" y="0">A</tspan></text>
    </g>
    <circle id="CURITIBA" class="cls-36" cx="314.97" cy="857.24" r="14.42" />
    <g id="CURITIBA-2" data-name="CURITIBA">
      <rect class="cls-28" x="282.7" y="868.35" width="64.54" height="21.48" />
      <text class="cls-7" transform="translate(286.57 883.64)"><tspan x="0" y="0">CURITI</tspan><tspan class="cls-42" x="40.95" y="0">B</tspan><tspan class="cls-9" x="48.41" y="0">A</tspan></text>
    </g>
    <circle id="PONTA_GROSSA" data-name="PONTA GROSSA" class="cls-36" cx="242.86" cy="838.28" r="14.42" />
    <g id="PONTA_GROSSA-2" data-name="PONTA GROSSA">
      <rect class="cls-28" x="151.96" y="847.16" width="101.84" height="21.48" />
      <text class="cls-7" transform="translate(155.36 861.93)"><tspan x="0" y="0">PON</tspan><tspan class="cls-40" x="26.44" y="0">T</tspan><tspan class="cls-9" x="32.82" y="0">A</tspan><tspan x="41.32" y="0" xml:space="preserve"> G</tspan><tspan class="cls-4" x="53.38" y="0">R</tspan><tspan x="61.29" y="0">OS</tspan><tspan class="cls-26" x="78.56" y="0">S</tspan><tspan class="cls-9" x="85.69" y="0">A</tspan></text>
    </g>
    <circle id="CORNELIO_PROCOPIO" data-name="CORNELIO PROCOPIO" class="cls-36" cx="239.15" cy="757.11" r="14.42" />
    <g id="CORNELIO_PROCOPIO-2" data-name="CORNELIO PROCOPIO">
      <rect class="cls-28" x="114.15" y="768.26" width="137.09" height="21.48" />
      <text class="cls-7" transform="translate(117.55 783.03)"><tspan x="0" y="0">CORNÉLIO P</tspan><tspan class="cls-4" x="72.98" y="0">R</tspan><tspan class="cls-27" x="80.9" y="0">OCÓPIO</tspan></text>
    </g>
  </g>
  <g id="SUDESTE-2" data-name="SUDESTE">
    <circle id="ITAPEVA" class="cls-1" cx="290.86" cy="796.51" r="14.16" />
    <g id="ITAPEVA-2" data-name="ITAPEVA">
      <rect class="cls-28" x="272.33" y="807.14" width="58.17" height="21.48" />
      <text class="cls-7" transform="translate(276.21 822.44)"><tspan x="0" y="0">I</tspan><tspan class="cls-40" x="3.91" y="0">T</tspan><tspan class="cls-27" x="10.29" y="0">APE</tspan><tspan class="cls-14" x="33.41" y="0">V</tspan><tspan class="cls-9" x="41.04" y="0">A</tspan></text>
    </g>
    <circle id="STO_ANDRE" data-name="STO ANDRE" class="cls-1" cx="451.56" cy="847.81" r="15.19" />
    <g id="STO_ANDRE-2" data-name="STO ANDRE">
      <rect class="cls-28" x="436.93" y="852.26" width="93.19" height="21.48" />
      <text class="cls-7" transform="translate(440.8 867.55)"><tspan class="cls-26" x="0" y="0">S</tspan><tspan x="7.13" y="0">AN</tspan><tspan class="cls-37" x="24.9" y="0">T</tspan><tspan x="31.91" y="0">O</tspan><tspan class="cls-10" x="41.75" y="0"> </tspan><tspan x="44.03" y="0">ANDRÉ</tspan></text>
    </g>
    <circle id="SP" class="cls-1" cx="410.35" cy="792.6" r="15.19" />
    <g id="SP-2" data-name="SP">
      <rect class="cls-28" x="372.49" y="803.42" width="75.72" height="21.48" />
      <text class="cls-7" transform="translate(376.37 818.71)"><tspan class="cls-26" x="0" y="0">S</tspan><tspan class="cls-33" x="7.13" y="0">Ã</tspan><tspan class="cls-27" x="15.53" y="0">O </tspan><tspan class="cls-32" x="27.93" y="0">P</tspan><tspan class="cls-41" x="34.88" y="0">A</tspan><tspan x="43.33" y="0">U</tspan><tspan class="cls-42" x="51.98" y="0">L</tspan><tspan x="58.02" y="0">O</tspan></text>
    </g>
    <circle id="SORCABA" class="cls-1" cx="348.28" cy="780" r="14.07" />
    <g id="SOROCABA">
      <rect class="cls-28" x="282.75" y="753.78" width="77.29" height="21.48" />
      <text class="cls-7" transform="translate(286.62 769.07)"><tspan x="0" y="0">SO</tspan><tspan class="cls-2" x="17.27" y="0">R</tspan><tspan class="cls-27" x="25.19" y="0">O</tspan><tspan class="cls-24" x="35.02" y="0">C</tspan><tspan x="43.96" y="0">A</tspan><tspan class="cls-42" x="52.75" y="0">B</tspan><tspan class="cls-9" x="60.21" y="0">A</tspan></text>
    </g>
    <circle id="BAURU" class="cls-1" cx="292.65" cy="732.62" r="14.07" />
    <g id="BAURU-2" data-name="BAURU">
      <rect class="cls-28" x="231.73" y="710.4" width="48.99" height="21.48" />
      <text class="cls-7" transform="translate(235.61 725.69)"><tspan class="cls-42" x="0" y="0">B</tspan><tspan class="cls-41" x="7.46" y="0">A</tspan><tspan x="15.91" y="0">URU</tspan></text>
    </g>
    <circle id="CAMPINAS" class="cls-1" cx="390.97" cy="732.13" r="15.39" />
    <g id="CAMPINAS-2" data-name="CAMPINAS">
      <rect class="cls-28" x="353.65" y="701.76" width="74.65" height="21.48" />
      <text class="cls-7" transform="translate(357.53 717.05)"><tspan class="cls-24" x="0" y="0">C</tspan><tspan x="8.94" y="0">AMPIN</tspan><tspan class="cls-25" x="49.85" y="0">A</tspan><tspan x="58.3" y="0">S</tspan></text>
    </g>
    <circle id="VOLTA_REDONDA" data-name="VOLTA REDONDA" class="cls-1" cx="462.91" cy="721" r="14.4" />
    <g id="VOLTA_REDDONDA" data-name="VOLTA REDDONDA">
      <rect class="cls-28" x="438.63" y="729.3" width="107.85" height="21.48" />
      <text class="cls-7" transform="translate(442.51 744.59)"><tspan class="cls-22" x="0" y="0">V</tspan><tspan x="8.17" y="0">O</tspan><tspan class="cls-35" x="18" y="0">L</tspan><tspan class="cls-5" x="23.25" y="0">T</tspan><tspan class="cls-31" x="29.63" y="0">A</tspan><tspan x="38.13" y="0" xml:space="preserve"> REDON</tspan><tspan class="cls-38" x="83.01" y="0">D</tspan><tspan class="cls-9" x="91.41" y="0">A</tspan></text>
    </g>
    <circle id="RJ" class="cls-1" cx="512.35" cy="783.9" r="26.77" />
    <g id="RIO_DE_JANEIRO" data-name="RIO DE JANEIRO">
      <rect class="cls-28" x="502.91" y="788.5" width="104.92" height="21.48" />
      <text class="cls-7" transform="translate(506.78 803.79)"><tspan x="0" y="0">RIO DE</tspan><tspan class="cls-13" x="39.81" y="0"> </tspan><tspan class="cls-9" x="42.07" y="0">J</tspan><tspan x="49.12" y="0">ANEI</tspan><tspan class="cls-4" x="77.51" y="0">R</tspan><tspan x="85.43" y="0">O</tspan></text>
    </g>
    <circle id="NITEROI" class="cls-1" cx="595.58" cy="759.39" r="19.35" />
    <g id="NITEROI-2" data-name="NITEROI">
      <rect class="cls-28" x="587.06" y="726.21" width="56.18" height="21.48" />
      <text class="cls-7" transform="translate(590.93 741.5)"><tspan x="0" y="0">NITE</tspan><tspan class="cls-4" x="26.82" y="0">R</tspan><tspan class="cls-27" x="34.74" y="0">ÓI</tspan></text>
    </g>
    <circle id="PETROPOLIS" class="cls-1" cx="543.65" cy="709.9" r="13.18" />
    <g id="PETROOLIA">
      <rect class="cls-28" x="531.27" y="681.32" width="82.52" height="21.48" />
      <text class="cls-7" transform="translate(535.14 696.61)"><tspan x="0" y="0">PET</tspan><tspan class="cls-4" x="21.55" y="0">R</tspan><tspan class="cls-27" x="29.47" y="0">ÓPOLIS</tspan></text>
    </g>
    <circle id="VITORIA" class="cls-1" cx="634.71" cy="641.91" r="13.18" />
    <g id="VITORIA-2" data-name="VITORIA">
      <rect class="cls-28" x="633.4" y="615.45" width="58.26" height="21.48" />
      <text class="cls-7" transform="translate(637.27 630.74)"><tspan x="0" y="0">VI</tspan><tspan class="cls-37" x="12.47" y="0">T</tspan><tspan x="19.48" y="0">ÓRI</tspan><tspan class="cls-9" x="41.21" y="0">A</tspan></text>
    </g>
    <circle id="VIÇOSA" class="cls-1" cx="558.07" cy="640.67" r="14.42" />
    <g id="VIÇOSA-2" data-name="VIÇOSA">
      <rect class="cls-28" x="555.37" y="609.16" width="55.19" height="21.48" />
      <text class="cls-7" transform="translate(559.24 624.45)"><tspan x="0" y="0">VIÇO</tspan><tspan class="cls-26" x="31.57" y="0">S</tspan><tspan class="cls-31" x="38.7" y="0">A</tspan></text>
    </g>
    <circle id="JF" class="cls-1" cx="497.94" cy="666.22" r="14.42" />
    <g id="JF-2" data-name="JF">
      <rect class="cls-28" x="423.02" y="636.99" width="89.92" height="21.48" />
      <text class="cls-7" transform="translate(426.9 652.29)"><tspan x="0" y="0">JUIZ DE </tspan><tspan class="cls-30" x="47.68" y="0">F</tspan><tspan x="54.07" y="0">O</tspan><tspan class="cls-34" x="63.91" y="0">R</tspan><tspan class="cls-9" x="71.86" y="0">A</tspan></text>
    </g>
    <circle id="BH" class="cls-1" cx="491.72" cy="602.89" r="16.19" />
    <g id="BH-2" data-name="BH">
      <rect class="cls-28" x="484.43" y="571.22" width="111.14" height="21.48" />
      <text class="cls-7" transform="translate(488.31 586.52)"><tspan x="0" y="0">BE</tspan><tspan class="cls-42" x="14.4" y="0">L</tspan><tspan x="20.44" y="0">O HORI</tspan><tspan class="cls-23" x="63.25" y="0">Z</tspan><tspan x="70.22" y="0">ONTE</tspan></text>
    </g>
    <circle id="ARARAS" class="cls-1" cx="379.94" cy="667.86" r="12.77" />
    <g id="ARARAS-2" data-name="ARARAS">
      <rect class="cls-28" x="351" y="640.49" width="57.89" height="21.48" />
      <text class="cls-7" transform="translate(354.87 655.78)"><tspan x="0" y="0">A</tspan><tspan class="cls-34" x="8.79" y="0">R</tspan><tspan x="16.75" y="0">A</tspan><tspan class="cls-34" x="25.54" y="0">R</tspan><tspan class="cls-41" x="33.5" y="0">A</tspan><tspan x="41.95" y="0">S</tspan></text>
    </g>
    <circle id="SAO_CARLOS" data-name="SAO CARLOS" class="cls-1" cx="314.55" cy="666.22" r="14.01" />
    <g id="SAO_CARLOS-2" data-name="SAO CARLOS">
      <rect class="cls-28" x="220.06" y="655.47" width="85.78" height="21.48" />
      <text class="cls-7" transform="translate(223.93 670.77)"><tspan class="cls-26" x="0" y="0">S</tspan><tspan class="cls-33" x="7.13" y="0">Ã</tspan><tspan class="cls-27" x="15.53" y="0">O </tspan><tspan class="cls-24" x="27.93" y="0">C</tspan><tspan class="cls-27" x="36.87" y="0">AR</tspan><tspan class="cls-29" x="53.65" y="0">L</tspan><tspan x="59.69" y="0">OS</tspan></text>
    </g>
    <circle id="UBERLANDIA" class="cls-1" cx="325.99" cy="584.99" r="14.01" />
    <g id="UBERLANDAI">
      <rect class="cls-28" x="264.17" y="556.38" width="83.33" height="21.48" />
      <text class="cls-7" transform="translate(268.05 571.67)"><tspan x="0" y="0">UBERLÂNDI</tspan><tspan class="cls-9" x="67.81" y="0">A</tspan></text>
    </g>
    <circle id="PATROCINIO" class="cls-1" cx="395.16" cy="586.7" r="14.01" />
    <g id="PATROCICOO">
      <rect class="cls-28" x="379.12" y="558.17" width="83.33" height="21.48" />
      <text class="cls-7" transform="translate(383 573.46)"><tspan class="cls-39" x="0" y="0">P</tspan><tspan class="cls-5" x="6.95" y="0">A</tspan><tspan x="14.9" y="0">T</tspan><tspan class="cls-4" x="22.13" y="0">R</tspan><tspan x="30.04" y="0">OCÍNIO</tspan></text>
    </g>
  </g>
  <g id="CENTRO_OESTE-2" data-name="CENTRO OESTE">
    <circle id="GOIANIA" class="cls-12" cx="300.55" cy="498.05" r="17.2" />
    <g id="GOIANIA-2" data-name="GOIANIA">
      <rect class="cls-28" x="273.94" y="463.17" width="60.19" height="21.48" />
      <text class="cls-7" transform="translate(277.33 477.94)"><tspan x="0" y="0">GOIÂNI</tspan><tspan class="cls-9" x="44.92" y="0">A</tspan></text>
    </g>
    <circle id="CUIABA" class="cls-12" cx="43.49" cy="454.37" r="13.96" />
    <g id="CUIABA-2" data-name="CUIABA">
      <rect class="cls-28" x="29.53" y="420.83" width="53.21" height="21.48" />
      <text class="cls-7" transform="translate(32.93 435.59)"><tspan x="0" y="0">CUIA</tspan><tspan class="cls-42" x="30.62" y="0">B</tspan><tspan class="cls-9" x="38.08" y="0">Á</tspan></text>
    </g>
  </g>
  <g id="NORDESTE-2" data-name="NORDESTE">
    <circle id="MACEIO" class="cls-8" cx="824.14" cy="225.38" r="13.8" />
    <g id="MACEIO-2" data-name="MACEIO">
      <rect class="cls-28" x="794.04" y="236.06" width="56.23" height="21.48" />
      <text class="cls-7" transform="translate(797.44 250.83)"><tspan x="0" y="0">M</tspan><tspan class="cls-33" x="11.61" y="0">A</tspan><tspan class="cls-27" x="20.01" y="0">CEIÓ</tspan></text>
    </g>
    <circle id="ARAPIRACA" class="cls-8" cx="757.39" cy="231.98" r="13.8" />
    <g id="ARAPIRACA-2" data-name="ARAPIRACA">
      <rect class="cls-28" x="681.67" y="203.46" width="78.32" height="21.48" />
      <text class="cls-7" transform="translate(685.07 218.23)"><tspan x="0" y="0">A</tspan><tspan class="cls-34" x="8.79" y="0">R</tspan><tspan x="16.75" y="0">API</tspan><tspan class="cls-6" x="37.08" y="0">R</tspan><tspan class="cls-22" x="45.03" y="0">A</tspan><tspan class="cls-24" x="53.44" y="0">C</tspan><tspan class="cls-9" x="62.37" y="0">A</tspan></text>
    </g>
    <circle id="RECIFE" class="cls-8" cx="840.62" cy="164.82" r="13.8" />
    <g id="RECIFE-2" data-name="RECIFE">
      <rect class="cls-28" x="816.74" y="173.42" width="47.74" height="21.48" />
      <text class="cls-7" transform="translate(820.14 188.18)"><tspan x="0" y="0">R</tspan><tspan class="cls-3" x="7.99" y="0">E</tspan><tspan x="14.57" y="0">CIFE</tspan></text>
    </g>
    <circle id="NATAL" class="cls-8" cx="826.81" cy="79.6" r="13.8" />
    <g id="NATAL-2" data-name="NATAL">
      <rect class="cls-28" x="769.54" y="73.68" width="45.5" height="21.48" />
      <text class="cls-7" transform="translate(772.94 88.45)"><tspan x="0" y="0">N</tspan><tspan class="cls-40" x="8.98" y="0">AT</tspan><tspan x="23.32" y="0">A</tspan><tspan class="cls-11" x="32.11" y="0">L</tspan></text>
    </g>
  </g>
<text id="salvador" x="800" y="750" font-size="20" fill="#000000" style="cursor: pointer;">Salvador</text></svg>